<svg xmlns="http://www.w3.org/2000/svg" width="53.68" height="38" viewBox="0 0 53.68 38"><defs><style>.a{fill:#4e8cc7;}</style></defs><title>airplane</title><rect class="a" x="30.8" y="12.08" width="2" height="2" transform="translate(-2.28 17.65) rotate(-30)"/><path class="a" d="M53.3,6.4a6.1,6.1,0,0,0-1.2-1.6L45.3,8.7A.92.92,0,0,1,44,8.3h0L42,4.8a1,1,0,0,1,.4-1.4h0l3.5-2a9.74,9.74,0,0,0-6.2,1.3L5,22.8l.9,1.6a11.23,11.23,0,0,0,15.2,4.1h0l11.6-6.7L34.6,38l4.3-2.5,3-19.1,10.2-5.9a3,3,0,0,0,1.2-4.1ZM21.1,22.7l-3.5,2a1,1,0,0,1-1.4-.4h0l-2-3.5a1,1,0,0,1,.4-1.4h0l3.5-2a1,1,0,0,1,1.4.4h0l2,3.5a1,1,0,0,1-.4,1.4Zm6.9-4-3.5,2a1,1,0,0,1-1.4-.4h0l-2-3.5a1,1,0,0,1,.4-1.4h0l3.5-2a1,1,0,0,1,1.4.4h0l2,3.5a1,1,0,0,1-.4,1.4Zm2.1-2.4-2-3.5a1,1,0,0,1,.4-1.4h0l3.5-2a1,1,0,0,1,1.4.4h0l2,3.5a1.08,1.08,0,0,1-.3,1.4l-3.5,2a1.15,1.15,0,0,1-1.5-.4Zm11.8-5.6-3.5,2a1,1,0,0,1-1.4-.4h0L35,8.8a1,1,0,0,1,.4-1.4h0l3.5-2a1,1,0,0,1,1.4.4h0l2,3.5a1,1,0,0,1-.4,1.4Z"/><rect class="a" x="23.81" y="16.11" width="2" height="2" transform="translate(-5.23 14.7) rotate(-30)"/><path class="a" d="M45.2,6.4l5.3-3.1a7.81,7.81,0,0,0-2-1.1L44.2,4.7Z"/><rect class="a" x="37.7" y="8.09" width="2" height="2" transform="translate(0.64 20.57) rotate(-30)"/><rect class="a" x="16.9" y="20.09" width="2" height="2" transform="translate(-8.15 11.78) rotate(-30)"/><polygon class="a" points="18.4 0 14.1 2.5 23.8 9.6 31.7 5.1 18.4 0"/><polygon class="a" points="3.5 12.1 0 14.1 4 21 10.2 17.4 3.5 12.1"/></svg>