<svg xmlns="http://www.w3.org/2000/svg" width="20.01" height="20" viewBox="0 0 20.01 20"><title>arrow_roundtrip</title><path d="M21.71,5.29l-3-3A1,1,0,0,0,17,3V5H5A3,3,0,0,0,2,8v3a1,1,0,0,0,2,0V8A1,1,0,0,1,5,7H17V9a1,1,0,0,0,.62.92A.84.84,0,0,0,18,10a1,1,0,0,0,.71-.29l3-3a1,1,0,0,0,0-1.41Z" transform="translate(-1.99 -2)"/><path d="M21,12a1,1,0,0,0-1,1v3a1,1,0,0,1-1,1H7V15a1,1,0,0,0-1.71-.71l-3,3a1,1,0,0,0,0,1.41h0l3,3A1,1,0,0,0,6,22a.84.84,0,0,0,.38-.08A1,1,0,0,0,7,21V19H19a3,3,0,0,0,3-3V13A1,1,0,0,0,21,12Z" transform="translate(-1.99 -2)"/></svg>