<svg xmlns="http://www.w3.org/2000/svg" width="506.56" height="506.56" viewBox="0 0 506.56 506.56"><title>dive_master</title><rect width="506.56" height="506.56" rx="200" ry="200"/><path d="M277.28,332.06h18.48V304.38H231.08v27.69h18.48a74,74,0,0,0,147.84,0V175H369.68V332.17a46.2,46.2,0,0,1-92.4-.08h0Zm101.64.06a55.44,55.44,0,0,1-110.88,0v-9.27h18.48v-9.24H240.35v9.24H258.8v9.21a64.67,64.67,0,0,0,64.63,64.71h0a64.69,64.69,0,0,0,64.68-64.66V230.46h-9.21V332.13Zm0-110.94V184.26h9.24v37ZM166.4,244.32v4.57a46.17,46.17,0,0,0,46.13,46.21h9.29a19.81,19.81,0,0,0,14.61-7.62L252.84,264c5.85-8.39,15.35-8.31,21.14,0l16.35,23.44a19.76,19.76,0,0,0,14.61,7.62h9.29a46.22,46.22,0,0,0,46.23-46.21v-4.57a50.85,50.85,0,0,0-50.73-50.82h-92.6A50.81,50.81,0,0,0,166.4,244.32Zm143.33-41.58a41.61,41.61,0,0,1,41.47,41.58v4.57a37,37,0,0,1-37,37h-9.29a10.89,10.89,0,0,1-7-3.67l-16.38-23.4c-9.48-13.59-26.77-13.62-36.29,0l-16.38,23.43a10.88,10.88,0,0,1-7,3.69h-9.27a36.93,36.93,0,0,1-36.91-37v-4.59a41.57,41.57,0,0,1,41.49-41.58Z" fill="#fff"/><polygon points="196.62 163.19 226.84 179.98 216.77 146.4 243.63 122.89 210.05 119.53 196.62 92.67 183.19 119.53 149.61 122.89 176.47 146.4 166.4 179.98 196.62 163.19" fill="none" stroke="#fff" stroke-linecap="round" stroke-linejoin="round" stroke-width="8"/><path d="M163,136.32c-75.56,27.74-73.88,84-73.88,84l33.58-13.43s-.81,26.46,13.43,40.3c0,0,4.7-50,33.58-70.52" fill="none" stroke="#fff" stroke-linecap="round" stroke-linejoin="round" stroke-width="8"/></svg>