<svg xmlns="http://www.w3.org/2000/svg" width="506.56" height="506.56" viewBox="0 0 506.56 506.56"><title>dive_computer</title><rect width="506.56" height="506.56" rx="200" ry="200"/><path d="M393.31,210.61H379.18V154.08a42.44,42.44,0,0,0-42.39-42.39H320.11l-11.86-59.3A14.13,14.13,0,0,0,294.39,41h-113a14.13,14.13,0,0,0-13.86,11.36l-11.86,59.3H139a42.44,42.44,0,0,0-42.39,42.39V351.92A42.44,42.44,0,0,0,139,394.31h16.68l11.86,59.3A14.13,14.13,0,0,0,181.35,465h113a14.13,14.13,0,0,0,13.86-11.36l11.86-59.3h16.68a42.44,42.44,0,0,0,42.39-42.39V295.39h14.13a14.13,14.13,0,0,0,14.13-14.13V224.74A14.13,14.13,0,0,0,393.31,210.61ZM192.92,69.3h89.89l8.47,42.39H184.45Zm89.89,367.4H192.92l-8.47-42.39H291.29Zm68.1-84.79A14.14,14.14,0,0,1,336.79,366H139a14.14,14.14,0,0,1-14.13-14.13V154.08A14.14,14.14,0,0,1,139,140H336.79a14.14,14.14,0,0,1,14.13,14.13V351.92Z" fill="#fff"/><path d="M235.88,279.22h11.76V261.6H206.48v17.62h11.76a47.06,47.06,0,0,0,94.08,0V179.28H294.68v100a29.4,29.4,0,0,1-58.8,0h0Zm64.68,0a35.28,35.28,0,0,1-70.56,0v-5.9h11.76v-5.88H212.38v5.88h11.74v5.86a41.16,41.16,0,0,0,41.13,41.18h0a41.16,41.16,0,0,0,41.16-41.15V214.56h-5.86v64.7Zm0-70.6v-23.5h5.88v23.52ZM165.32,223.38v2.91a29.38,29.38,0,0,0,29.36,29.4h5.91a12.6,12.6,0,0,0,9.3-4.85l10.45-14.92c3.72-5.34,9.77-5.29,13.45,0l10.41,14.92a12.57,12.57,0,0,0,9.3,4.85h5.91a29.41,29.41,0,0,0,29.42-29.4v-2.91A32.36,32.36,0,0,0,256.53,191H197.6A32.34,32.34,0,0,0,165.32,223.38Zm91.21-26.46a26.48,26.48,0,0,1,26.39,26.46v2.91a23.53,23.53,0,0,1-23.54,23.52h-5.91a6.93,6.93,0,0,1-4.47-2.34l-10.42-14.89c-6-8.65-17-8.66-23.09,0L205.06,247.5a6.92,6.92,0,0,1-4.48,2.35h-5.9a23.5,23.5,0,0,1-23.49-23.52h0v-2.91a26.46,26.46,0,0,1,26.4-26.46Z" fill="#fff"/></svg>