<svg xmlns="http://www.w3.org/2000/svg" width="506.56" height="506.56" viewBox="0 0 506.56 506.56"><title>diving_home</title><rect width="506.56" height="506.56" rx="200" ry="200"/><path d="M319.75,228.87h18.81V200.66H272.73v28.21h18.81a75.23,75.23,0,0,0,150.47,0V69H413.79V228.94a47,47,0,0,1-94-.07Zm103.45.06a56.42,56.42,0,0,1-112.85,0v-9.43h18.81v-9.4h-47v9.4h18.81v9.38a65.82,65.82,0,0,0,65.83,65.86h0a65.83,65.83,0,0,0,65.83-65.81V125.42h-9.4V228.93Zm0-112.91V78.4h9.4V116ZM206.9,139.53v4.69a47,47,0,0,0,47,47h9.43a20.14,20.14,0,0,0,14.87-7.76l16.7-23.86c6-8.5,15.62-8.46,21.51,0L333,183.49a20.12,20.12,0,0,0,14.86,7.76h9.45a47,47,0,0,0,47.05-47v-4.69a51.75,51.75,0,0,0-51.63-51.72H258.53a51.71,51.71,0,0,0-51.63,51.72ZM352.76,97.21A42.35,42.35,0,0,1,395,139.53v4.69a37.64,37.64,0,0,1-37.65,37.63h-9.45a11,11,0,0,1-7.15-3.74L324.1,154.25c-9.65-13.83-27.24-13.86-36.93,0l-16.7,23.86a11.06,11.06,0,0,1-7.16,3.75h-9.43a37.58,37.58,0,0,1-37.56-37.63v-4.69a42.31,42.31,0,0,1,42.23-42.32Z" fill="#fff"/><path d="M297.25,329.12a8.31,8.31,0,0,1-4.82-1.58L180.95,248,69.47,327.54a8.31,8.31,0,0,1-9.64-13.46L176.13,231a8.31,8.31,0,0,1,9.64,0l116.3,83.07a8.31,8.31,0,0,1-4.82,15Z" fill="#fff"/><path d="M89.57,279.28A8.31,8.31,0,0,1,81.26,271V237.74a8.31,8.31,0,0,1,8.31-8.31H122.8a8.31,8.31,0,1,1,0,16.61H97.88V271A8.31,8.31,0,0,1,89.57,279.28Z" fill="#fff"/><path d="M255.71,445.42H214.18a8.31,8.31,0,0,1-8.31-8.31V379H156v58.15a8.31,8.31,0,0,1-8.31,8.31H106.18A24.92,24.92,0,0,1,81.26,420.5V337.43a8.31,8.31,0,1,1,16.61,0V420.5a8.31,8.31,0,0,0,8.31,8.31h33.23V370.66a8.31,8.31,0,0,1,8.31-8.31h66.46a8.31,8.31,0,0,1,8.31,8.31v58.15h33.23A8.31,8.31,0,0,0,264,420.5V337.43a8.31,8.31,0,0,1,16.61,0V420.5A24.92,24.92,0,0,1,255.71,445.42Z" fill="#fff"/><rect x="133.56" y="125.17" width="13.24" height="68" rx="6.62" ry="6.62" fill="#fff"/><rect x="133.56" y="125.17" width="13.24" height="68" rx="6.62" ry="6.62" transform="translate(-18.99 299.35) rotate(-90)" fill="#fff"/></svg>