<svg xmlns="http://www.w3.org/2000/svg" width="506.56" height="506.56" viewBox="0 0 506.56 506.56"><title>diving</title><rect width="506.56" height="506.56" rx="200" ry="200"/><path d="M246.44,307h24.24V270.68H185.84V307h24.24a97,97,0,0,0,193.92,0V101H367.64V307.14a60.6,60.6,0,0,1-121.2-.1Zm133.32.08a72.72,72.72,0,0,1-145.44,0V294.92h24.24V282.8H198v12.12H222.2V307A84.83,84.83,0,0,0,307,391.88h0a84.85,84.85,0,0,0,84.84-84.81V173.72H379.76v133.4Zm0-145.52V113.12h12.12V161.6ZM101,191.9v6a60.56,60.56,0,0,0,60.53,60.61h12.16c6.71,0,15.21-4.36,19.16-10l21.53-30.75c7.67-11,20.13-10.9,27.73,0l21.45,30.75c3.85,5.53,12.3,10,19.16,10h12.18a60.63,60.63,0,0,0,60.64-60.61v-6A66.7,66.7,0,0,0,289,125.24H167.54A66.65,66.65,0,0,0,101,191.9Zm188-54.54A54.58,54.58,0,0,1,343.4,191.9v6a48.51,48.51,0,0,1-48.52,48.49H282.7c-2.84,0-7.59-2.5-9.22-4.82L252,210.87c-12.43-17.83-35.11-17.86-47.6,0L182.92,241.6c-1.65,2.36-6.42,4.84-9.23,4.84H161.53a48.44,48.44,0,0,1-48.41-48.49v-6a54.53,54.53,0,0,1,54.42-54.54Z" fill="#fff"/></svg>