<svg xmlns="http://www.w3.org/2000/svg" width="30" height="24" viewBox="0 0 30 24"><title>dollarSign</title><path d="M1.5,9a.5.5,0,0,1,0-1C15.88,8,24.57,8,27.08,4.22A.5.5,0,0,1,28,4.5V7a.5.5,0,0,1-1,0V5.83C23.44,9,14.88,9,1.5,9Z" transform="translate(-1 -4)"/><path d="M14,11.06,8.27,11c-2.15,0-4.42,0-6.77,0a.5.5,0,0,1,0-1c2.35,0,4.62,0,6.77,0,10.59.07,19,.13,20.86-1.87A.5.5,0,0,1,30,8.5v2a.5.5,0,0,1-1,0v-1C26.59,10.83,21.39,11.06,14,11.06Z" transform="translate(-1 -4)"/><path d="M16,24a2.47,2.47,0,0,0,2.5-2.5c0-1.14-.77-2-2.29-2.46l-.11,0c-.57-.19-1.1-.44-1.1-1a1,1,0,0,1,1-1,2,2,0,0,1,1.18.38.5.5,0,1,0,.64-.76A3,3,0,0,0,16,16a2,2,0,0,0-2,2c0,1.37,1.34,1.81,1.78,2l.11,0c1.08.35,1.6.85,1.6,1.51A1.47,1.47,0,0,1,16,23a2,2,0,0,1-1.6-.8.5.5,0,1,0-.8.6A3,3,0,0,0,16,24Z" transform="translate(-1 -4)"/><path d="M16,25a.5.5,0,0,0,.5-.5V24a.5.5,0,0,0-1,0v.5A.5.5,0,0,0,16,25Z" transform="translate(-1 -4)"/><path d="M16,16.5a.5.5,0,0,0,.5-.5v-.5a.5.5,0,0,0-1,0V16A.5.5,0,0,0,16,16.5Z" transform="translate(-1 -4)"/><path d="M1.5,12a.5.5,0,0,0,0,1H30V27H1.5a.5.5,0,0,0-.5.5H1a.5.5,0,0,0,.5.5h29a.5.5,0,0,0,.5-.5v-15a.5.5,0,0,0-.5-.5Z" transform="translate(-1 -4)"/><path d="M1,14.5v13a.5.5,0,0,0,.5.5h0a.5.5,0,0,0,.5-.5v-13a.5.5,0,0,0-1,0Z" transform="translate(-1 -4)"/><path d="M12.5,26H5.45A.5.5,0,0,1,5,25.58a2.49,2.49,0,0,0-1.62-1.93A.5.5,0,0,1,3,23.18V16.82a.5.5,0,0,1,.33-.47A2.49,2.49,0,0,0,5,14.42.5.5,0,0,1,5.45,14H12.5a.5.5,0,0,1,0,1H5.85A3.49,3.49,0,0,1,4,17.15v5.7A3.5,3.5,0,0,1,5.85,25H12.5a.5.5,0,0,1,0,1Z" transform="translate(-1 -4)"/><path d="M19.5,26h7.05a.5.5,0,0,0,.49-.42,2.49,2.49,0,0,1,1.62-1.93.5.5,0,0,0,.33-.47V16.82a.5.5,0,0,0-.33-.47A2.49,2.49,0,0,1,27,14.42a.5.5,0,0,0-.49-.42H19.5a.5.5,0,0,0,0,1h6.65A3.49,3.49,0,0,0,28,17.15v5.7A3.5,3.5,0,0,0,26.15,25H19.5a.5.5,0,0,0,0,1Z" transform="translate(-1 -4)"/></svg>