<svg xmlns="http://www.w3.org/2000/svg" width="1664" height="1536" viewBox="0 0 1664 1536"><title>download</title><path d="M1344,1344q0-26-19-45t-45-19q-26,0-45,19t-19,45q0,26,19,45t45,19q26,0,45-19T1344,1344Zm256,0q0-26-19-45t-45-19q-26,0-45,19t-19,45q0,26,19,45t45,19q26,0,45-19T1600,1344Zm128-224v320q0,40-28,68t-68,28H160q-40,0-68-28t-28-68V1120q0-40,28-68t68-28H625l135,136q58,56,136,56t136-56l136-136h464q40,0,68,28T1728,1120ZM1403,551q17,41-14,70L941,1069q-18,19-45,19t-45-19L403,621q-31-29-14-70,17-39,59-39H704V64q0-26,19-45T768,0h256q26,0,45,19t19,45V512h256Q1386,512,1403,551Z" transform="translate(-64)"/></svg>