<svg xmlns="http://www.w3.org/2000/svg" width="28" height="27" viewBox="0 0 28 27"><title>editor_add</title><path d="M23,15a8,8,0,1,0,8,8A8,8,0,0,0,23,15Zm3.7,8.8a1,1,0,0,1-1.4,0L24,22.5V27a1,1,0,0,1-2,0V22.5l-1.3,1.3a1,1,0,0,1-1.4-1.4l3-3.1h0a1,1,0,0,1,1.4,0h0l3,3.1A1,1,0,0,1,26.7,23.8Z" transform="translate(-3 -4)"/><path d="M13.1,24.1a8.1,8.1,0,0,1,0-2.2h0a3.55,3.55,0,0,1,.2-1c0-.1,0-.1.1-.2.1-.3.1-.5.2-.8,0-.1.1-.2.1-.3s.2-.5.3-.7.1-.2.2-.3l.3-.6c.1-.1.1-.2.2-.3s.3-.4.4-.6.1-.2.2-.3A5.72,5.72,0,0,1,16,16l.7-.7c.1-.1.2-.1.3-.2s.3-.3.5-.4.2-.1.3-.2.3-.2.5-.3.3-.1.4-.2.3-.1.4-.2.3-.1.4-.2a.6.6,0,0,1,.4-.1.9.9,0,0,1,.5-.1c.1,0,.3-.1.4-.1a4.33,4.33,0,0,0,.5-.1h.3c.2,0,.4-.1.6-.1h1a10.1,10.1,0,0,1,5.7,2h0V9a5,5,0,0,0-5-5H8A5,5,0,0,0,3,9V28a1,1,0,0,0,.6.9A.6.6,0,0,0,4,29a1.85,1.85,0,0,0,.7-.2,22.49,22.49,0,0,1,8.4-4.7ZM11,11h6a1,1,0,0,1,0,2H11a1,1,0,0,1,0-2Zm-1,5a.94.94,0,0,1,1-1h3a1,1,0,0,1,0,2H11A.94.94,0,0,1,10,16Z" transform="translate(-3 -4)"/></svg>