<svg xmlns="http://www.w3.org/2000/svg" width="22" height="22" viewBox="0 0 22 22"><title>edit3</title><path d="M21,3H18.5a.5.5,0,0,0-.5.5V6a1,1,0,1,1-1.33-.94A.5.5,0,0,0,17,4.59V1.5a.5.5,0,0,0-1,0V3H8.5a.5.5,0,0,0-.5.5V6a1,1,0,1,1-1.33-.94A.5.5,0,0,0,7,4.59V1.5a.5.5,0,0,0-1,0V3H3A2,2,0,0,0,1,5V21a2,2,0,0,0,2,2H17.29a1,1,0,0,0,.71-.29L22.71,18a1,1,0,0,0,.29-.71V5A2,2,0,0,0,21,3Zm0,14H19a2,2,0,0,0-2,2v2H3V9H21Z" transform="translate(-1 -1)"/><path d="M9.38,16.78h.82V15.55H7.34v1.22h.82a3.27,3.27,0,0,0,6.54,0V9.83H13.47v7a2,2,0,0,1-4.09,0h0Zm4.5,0a2.45,2.45,0,0,1-4.9,0v-.41h.82V16h-2v.41h.82v.41a2.86,2.86,0,0,0,2.86,2.86h0a2.86,2.86,0,0,0,2.86-2.86v-4.5h-.41v4.5Zm0-4.91V10.24h.41v1.63Zm-9.4,1v.2a2,2,0,0,0,2,2h.41a.88.88,0,0,0,.65-.34l.73-1a.53.53,0,0,1,.94,0l.72,1a.87.87,0,0,0,.65.34H11a2,2,0,0,0,2-2v-.2a2.25,2.25,0,0,0-2.24-2.25H6.72A2.25,2.25,0,0,0,4.48,12.9Zm6.34-1.84a1.84,1.84,0,0,1,1.83,1.84v.2A1.64,1.64,0,0,1,11,14.74h-.41a.48.48,0,0,1-.31-.16l-.72-1a.94.94,0,0,0-1.61,0l-.72,1a.48.48,0,0,1-.31.16H6.52A1.63,1.63,0,0,1,4.89,13.1h0v-.2a1.84,1.84,0,0,1,1.84-1.84Z" transform="translate(-1 -1)" fill="#fff"/><path d="M9.38,17.78h.82V16.55H7.34v1.22h.82a3.27,3.27,0,0,0,6.54,0V10.83H13.47v7a2,2,0,0,1-4.09,0h0Zm4.5,0a2.45,2.45,0,0,1-4.9,0v-.41h.82V17h-2v.41h.82v.41a2.86,2.86,0,0,0,2.86,2.86h0a2.86,2.86,0,0,0,2.86-2.86v-4.5h-.41v4.5Zm0-4.91V11.24h.41v1.63Zm-9.4,1v.2a2,2,0,0,0,2,2h.41a.88.88,0,0,0,.65-.34l.73-1a.53.53,0,0,1,.94,0l.72,1a.87.87,0,0,0,.65.34H11a2,2,0,0,0,2-2v-.2a2.25,2.25,0,0,0-2.24-2.25H6.72A2.25,2.25,0,0,0,4.48,13.9Zm6.34-1.84a1.84,1.84,0,0,1,1.83,1.84v.2A1.64,1.64,0,0,1,11,15.74h-.41a.48.48,0,0,1-.31-.16l-.72-1a.94.94,0,0,0-1.61,0l-.72,1a.48.48,0,0,1-.31.16H6.52A1.63,1.63,0,0,1,4.89,14.1h0v-.2a1.84,1.84,0,0,1,1.84-1.84Z" transform="translate(-1 -1)" fill="#fff"/><path d="M9.38,17h.82V15.74H7.34V17h.82a3.27,3.27,0,0,0,6.54,0V10H13.47v7a2,2,0,0,1-4.09,0h0Zm4.5,0A2.45,2.45,0,0,1,9,17v-.41h.82v-.41h-2v.41h.82V17a2.86,2.86,0,0,0,2.86,2.86h0A2.86,2.86,0,0,0,14.29,17v-4.5h-.41V17Zm0-4.91V10.42h.41v1.63Zm-9.4,1v.2a2,2,0,0,0,2,2h.41A.88.88,0,0,0,7.58,15l.73-1a.53.53,0,0,1,.94,0L10,15a.87.87,0,0,0,.65.34H11a2,2,0,0,0,2-2v-.2a2.25,2.25,0,0,0-2.24-2.25H6.72A2.25,2.25,0,0,0,4.48,13.08Zm6.34-1.84a1.84,1.84,0,0,1,1.83,1.84v.2A1.64,1.64,0,0,1,11,14.92h-.41a.48.48,0,0,1-.31-.16l-.72-1a.94.94,0,0,0-1.61,0l-.72,1a.48.48,0,0,1-.31.16H6.52a1.63,1.63,0,0,1-1.63-1.63h0v-.2a1.84,1.84,0,0,1,1.84-1.84Z" transform="translate(-1 -1)"/></svg>