<svg xmlns="http://www.w3.org/2000/svg" width="270.82" height="270.82" viewBox="0 0 270.82 270.82"><title>editor_active</title><path d="M150.52,14.52A135.41,135.41,0,1,0,285.93,149.94,135.41,135.41,0,0,0,150.52,14.52Zm0,251.68A116.26,116.26,0,1,1,266.78,149.94,116.27,116.27,0,0,1,150.52,266.2Z" transform="translate(-15.11 -14.52)"/><path d="M255.26,149.93A104.75,104.75,0,1,1,150.52,45.19,104.74,104.74,0,0,1,255.26,149.93Z" transform="translate(-15.11 -14.52)"/><polygon points="122.09 196.88 66.87 111.47 66.87 110.4 118.61 133.78 203.95 73.94 122.09 196.88" fill="#fff"/></svg>