<svg xmlns="http://www.w3.org/2000/svg" width="506.56" height="506.56" viewBox="0 0 506.56 506.56"><title>edu_fun</title><rect width="506.56" height="506.56" rx="200" ry="200"/><path d="M281.47,248.08v154.2a7.34,7.34,0,0,1-7.34,7.34h-11a3.67,3.67,0,0,1-3.67-3.67V391.79a3.67,3.67,0,0,1,1.11-2.62,33.05,33.05,0,0,0,1.65-45.46q-.79-.89-1.64-1.72a3.68,3.68,0,0,1-1.12-2.63V292.14a29.37,29.37,0,0,1-29.37-29.37H119.93a29.37,29.37,0,0,1-29.37,29.37v66.09a29.37,29.37,0,0,1,29.37,29.37h91.28a3.69,3.69,0,0,1,2.63,1.12l.44.44a3.69,3.69,0,0,1,1.11,2.63V406a3.67,3.67,0,0,1-3.67,3.67H75.87a7.34,7.34,0,0,1-7.34-7.34V248.08a7.34,7.34,0,0,1,7.34-7.34H274.13A7.34,7.34,0,0,1,281.47,248.08Zm-146.86,51.4h80.77a3.67,3.67,0,0,0,0-7.34H134.61a3.67,3.67,0,0,0,0,7.34Zm0,29.37h80.77a3.67,3.67,0,0,0,0-7.34H134.61a3.67,3.67,0,0,0,0,7.34Zm71.07,22H134.74a3.76,3.76,0,0,0-3.79,3.43,3.67,3.67,0,0,0,3.42,3.91h69.76a1.37,1.37,0,0,0,1.33-1,32.83,32.83,0,0,1,1.5-4.43,1.37,1.37,0,0,0-1.27-1.9Zm51-2.32a25.7,25.7,0,1,0-36.28,36.28c.33.29.63.54.91.77a25.7,25.7,0,0,0,35.36-37Zm-19.28,50A33.13,33.13,0,0,1,224.63,396a1.37,1.37,0,0,0-1.9,1.27v31a3.67,3.67,0,0,0,5.56,3.15l7.24-4.34a3.67,3.67,0,0,1,3.78,0l7.24,4.34a3.67,3.67,0,0,0,5.56-3.15v-31a1.37,1.37,0,0,0-1.9-1.27A33.14,33.14,0,0,1,237.42,398.62Z" fill="#fff"/><path d="M320.1,227.08h16.21V202.79H279.58v24.29h16.21a64.86,64.86,0,0,0,129.67,0V89.33H401.15V227.17a40.52,40.52,0,0,1-81-.07h0Zm89.15.05a48.63,48.63,0,0,1-97.25,0V219h16.21v-8.1h-40.5V219H303.9v8.08a56.72,56.72,0,0,0,56.69,56.76h0a56.74,56.74,0,0,0,56.73-56.71V138h-8.08v89.18Zm0-97.31V97.43h8.1v32.42Zm-186.4,20.29v4a40.5,40.5,0,0,0,40.46,40.53h8.14A17.37,17.37,0,0,0,284.27,188l14.4-20.56c5.13-7.36,13.46-7.29,18.54,0L331.55,188a17.33,17.33,0,0,0,12.81,6.69h8.14a40.54,40.54,0,0,0,40.55-40.53v-4a44.6,44.6,0,0,0-44.49-44.57H267.35A44.57,44.57,0,0,0,222.85,150.11Zm125.71-36.47a36.5,36.5,0,0,1,36.38,36.47v4a32.44,32.44,0,0,1-32.44,32.42h-8.14a9.55,9.55,0,0,1-6.17-3.22L323.82,162.8c-8.31-11.92-23.48-11.94-31.83,0l-14.36,20.55a9.54,9.54,0,0,1-6.17,3.24h-8.13A32.39,32.39,0,0,1,231,154.17h0v-4a36.46,36.46,0,0,1,36.39-36.47Z" fill="#fff"/><rect x="159.56" y="150.17" width="13.24" height="68" rx="6.62" ry="6.62" fill="#fff"/><rect x="132.18" y="177.55" width="68" height="13.24" rx="6.62" ry="6.62" fill="#fff"/></svg>