<svg xmlns="http://www.w3.org/2000/svg" width="506.56" height="506.56" viewBox="0 0 506.56 506.56"><title>efr</title><rect width="506.56" height="506.56" rx="200" ry="200"/><path d="M180.93,218l26.82-87.34,2.37.14,23.81,130.27,10.24-43.56,135,6.07c17.89-28.6,26.45-65.36-7.75-101-47.57-49.64-112.73,1-112.73,1s-28.06-21.83-60.8-22.8q-1.61,0-3.23,0c-16.21.21-33.37,5.8-48.71,21.8-33.58,35-25.93,71.1-8.7,99.47Z" fill="#fff"/><path d="M230.21,308.72l-2.39-.14L207.91,169.21l-16,59.61H141.62a190.32,190.32,0,0,0,19.82,24.07c27.92,29,97.22,95.15,97.22,95.15s69.29-66.19,97.22-95.15a190.78,190.78,0,0,0,19.65-23.84l-125.07,4.12Z" fill="#fff"/><path d="M123.71,377.89v27.42H143l4.82-3.92H128.53v-7.83h12l4.82-3.92H128.53v-7.83H143l4.82-3.92Zm32.6,0-5.23,2v25.46h4.82V386.69l9.63,14.7h4.82l9.63-14.7v18.62h4.82V379.85l-5.36-2-11.49,18.59Zm33.77,0v27.42h19.26l4.82-3.92H194.9v-7.83h12l4.82-3.92H194.9v-7.83h14.45l4.82-3.92Zm28.17,0v27.42h4.82V393.56h16.86v11.75h4.82V393.56l-3.21-2,3.21-2v-7.83l-4.82-3.92Zm34.59,0L248,381.81v19.58l4.82,3.92h16.86l4.82-3.92V389.64h-12l-4.82,3.92h12v7.83H252.83V381.81h16.86l4.82-3.92Zm27.1,0v27.42h19.26l4.82-3.92H284.74v-7.83h12l4.82-3.92H284.74v-7.83h14.45l4.82-3.92Zm32.31,0-4.82,2v25.46h4.82V385.72l16.89,19.58h4.78V377.89l-4.85,2v17.63Zm31,0-4.82,3.92v19.58l4.85,3.92h16.82l4.82-3.92H343.24V381.81h21.67l-4.85-3.92Zm29.75,0-4.08,2,12,13.71v11.75h4.78V393.56l11.53-13.71-4.08-2-9.79,11.75Zm-149.92,3.92h16.86v7.83H223.06Z" fill="#fff"/><path d="M127,413.54l-2.11,1.71v5.14h-2.11v3.42h2.11v13.7h4.21v-13.7h2.11l2.11-3.42H129.1V417h2.11l4.21-3.42Zm10.17,1.71v3.42h4.21v-3.42Zm53,0v5.14h-2.11v3.42h2.11l0,13.7h4.18l4.21-3.42h-4.21V423.81h2.11l2.11-3.42h-4.21V417Zm-53,5.14v17.12h4.21V420.39Zm11,0L146,422.1v15.41h4.21v-13.7h4.21l4.21-3.42Zm17.54,0-2.11,1.71v6.85l2.11,1.71h12.63v3.42H165.69l-4.21,3.42h18.95l2.11-1.71v-6.85l-2.11-1.71H167.8v-3.42h12.63l4.21-3.42Zm49.69,0-2.11,1.71v15.41h4.21v-13.7h4.21l4.21-3.42Zm15.88,0-2.11,1.71v13.7l2.11,1.71H243.9l4.21-3.42H233.38v-3.42h14.74V422.1L246,420.39Zm24.22,0-2.11,1.71v6.85l2.11,1.71h12.63v3.42H255.49l-4.21,3.42h18.95l2.11-1.71v-6.85l-2.11-1.71H257.6v-3.42h12.63l4.21-3.42Zm22.26,0v20.55l4.21,0v-3.45H294.6l2.11-1.71V422.1l-2.11-1.71Zm39.41,0-14.74,0-2.08,1.69v13.7l2.08,1.71h14.74l2.11-1.71V422.1Zm7.85,0-2.11,1.71v15.41h4.21v-13.7h10.53v13.7h4.21V422.1l-2.11-1.71Zm24.69,0-2.11,1.71v6.85l2.11,1.71h12.63v3.42H349.7l-4.21,3.42h18.95l2.11-1.71v-6.85l-2.11-1.71H351.81v-3.42h12.63l4.21-3.42Zm24.59,0-2.11,1.71v13.7l2.11,1.71h12.63l4.21-3.42H376.4v-3.42h14.74V422.1L389,420.39Zm-140.92,3.42H243.9v3.42H233.38Zm48.59,0H292.5v10.27H282Zm22.57,0h10.53v10.27H304.53Zm71.87,0h10.53v3.42H376.4Z" fill="#fff"/></svg>