<svg xmlns="http://www.w3.org/2000/svg" width="34.5" height="25.76" viewBox="0 0 34.5 25.76"><title>email</title><path d="M29.38,30.38H5.61A5.37,5.37,0,0,1,.25,25V10A5.37,5.37,0,0,1,5.61,4.62H29.38A5.37,5.37,0,0,1,34.75,10V25A5.37,5.37,0,0,1,29.38,30.38ZM5.61,7.12A2.87,2.87,0,0,0,2.75,10V25a2.87,2.87,0,0,0,2.86,2.87H29.38A2.87,2.87,0,0,0,32.25,25V10a2.87,2.87,0,0,0-2.87-2.86Z" transform="translate(-0.25 -4.62)"/><path d="M17.49,20.86a4.66,4.66,0,0,1-2.9-1L1.22,9.24a1.25,1.25,0,0,1,1.56-2L16.14,17.93a2.33,2.33,0,0,0,2.7,0L32,7.29a1.25,1.25,0,0,1,1.57,1.95h0L20.41,19.87A4.67,4.67,0,0,1,17.49,20.86Z" transform="translate(-0.25 -4.62)"/></svg>