<svg xmlns="http://www.w3.org/2000/svg" width="506.56" height="506.56" viewBox="0 0 506.56 506.56"><title>firefly</title><rect width="506.56" height="506.56" rx="200" ry="200"/><path d="M412.18,241.17c-18-31.12-64.87-73.35-100.3-77.18a61.1,61.1,0,0,0-33.55-66.7L287,89.78A12.4,12.4,0,0,0,270.78,71L252,87.3,233.22,71A12.4,12.4,0,1,0,217,89.78l8.67,7.51A61.1,61.1,0,0,0,192.11,164c-35.42,3.83-82.32,46.05-100.3,77.18-22.07,38.23-9.09,75.25,27.46,96.35,22.88,13.21,49.14,16.38,71.54,2.84a83.43,83.43,0,0,0,122.38,0c22.45,13.58,48.73,10.33,71.54-2.84C421.07,316.54,434.37,279.6,412.18,241.17ZM252,116.1a36.25,36.25,0,0,1,34.54,47.12,83.62,83.62,0,0,0-69.07,0A36.25,36.25,0,0,1,252,116.1ZM231.4,184.26a58.15,58.15,0,0,1,41.19,0c-14.3,27.21-6.75,73.37,3.59,102.9H227.81C238,258,245.75,211.54,231.4,184.26Zm-46.85,129.9h0c-18.66,17.43-41.14,8.66-52.88,1.89-24.88-14.36-33.45-36.36-18.38-62.47,19-32.95,74.27-75.3,91.86-63.11C224.5,204,211.25,289.23,184.55,314.16Zm24.62,9.53A102.26,102.26,0,0,0,216.8,312H287.2a101.47,101.47,0,0,0,7.63,11.72A58.64,58.64,0,0,1,209.16,323.68ZM372.33,316c-11.74,6.78-34.22,15.55-52.88-1.89-26.45-24.7-40.17-109.91-20.62-123.68,16.93-11.65,71.94,28.57,91.88,63.09C405.72,279.59,397.31,301.62,372.33,316Z" fill="#fff"/><path d="M252,384.62A12.4,12.4,0,0,0,239.6,397v30.58a12.4,12.4,0,1,0,24.8,0V397A12.4,12.4,0,0,0,252,384.62Z" fill="#fff"/><path d="M192,369.92a12.4,12.4,0,0,0-16.73,5.26l-14.14,27.11a12.4,12.4,0,1,0,22,11.46l14.14-27.11A12.4,12.4,0,0,0,192,369.92Z" fill="#fff"/><path d="M342.85,402.29l-14.14-27.11a12.4,12.4,0,0,0-22,11.46l14.14,27.11a12.4,12.4,0,1,0,22-11.46Z" fill="#fff"/></svg>