<svg xmlns="http://www.w3.org/2000/svg" width="506.56" height="506.56" viewBox="0 0 506.56 506.56"><title>home</title><rect width="506.56" height="506.56" rx="200" ry="200"/><path d="M410.73,241.07a11.35,11.35,0,0,1-6.58-2.16L251.86,130.26,99.57,238.92a11.35,11.35,0,0,1-13.17-18.39L245.28,107a11.35,11.35,0,0,1,13.17,0L417.32,220.51A11.35,11.35,0,0,1,410.73,241Z" fill="#fff"/><path d="M127,173a11.35,11.35,0,0,1-11.35-11.31V116.24A11.35,11.35,0,0,1,127,104.89h45.39a11.35,11.35,0,1,1,.79,22.69H138.38v34.1A11.35,11.35,0,0,1,127,173Z" fill="#fff"/><path d="M354,399.95H297.26a11.35,11.35,0,0,1-11.35-11.35V309.21H217.78v79.44A11.35,11.35,0,0,1,206.43,400h-56.7a34,34,0,0,1-34-34V252.43a11.35,11.35,0,1,1,22.69-.79q0,.39,0,.79V365.9a11.35,11.35,0,0,0,11.35,11.35h45.39V297.82a11.35,11.35,0,0,1,11.35-11.35h90.79a11.35,11.35,0,0,1,11.35,11.35v79.44H354a11.35,11.35,0,0,0,11.31-11.35V252.43a11.35,11.35,0,0,1,22.69,0V365.9A34,34,0,0,1,354,399.95Z" fill="#fff"/></svg>