<svg xmlns="http://www.w3.org/2000/svg" width="1612.22" height="1283" viewBox="0 0 1612.22 1283"><title>home_ico</title><path d="M1472,992v480q0,26-19,45t-45,19H1024V1152H768v384H384q-26,0-45-19t-19-45V992a13.67,13.67,0,0,1,.5-3,13.67,13.67,0,0,0,.5-3L896,512l575,474A13.93,13.93,0,0,1,1472,992Zm223-69-62,74q-8,9-21,11h-3q-13,0-21-7L896,424,204,1001q-12,8-24,7-13-2-21-11L97,923a32.43,32.43,0,0,1-7-23.5Q91,886,101,878L820,279q32-26,76-26t76,26l244,204V288q0-14,9-23t23-9h192q14,0,23,9t9,23V696l219,182q10,8,11,21.5A32.43,32.43,0,0,1,1695,923Z" transform="translate(-89.89 -253)"/></svg>