<svg xmlns="http://www.w3.org/2000/svg" width="448.09" height="384" viewBox="0 0 448.09 384"><title>images</title><path d="M457.6,140.2l-82.5-4-4.8-53.8c-1-11.3-11.1-19.2-22.9-18.3L51.4,88.4c-11.8,1-20.3,10.5-19.4,21.7L53.2,345.9c1,11.3,11.2,19.2,22.9,18.3l15-1.2-2.4,45.8c-.6,12.6,9.2,22.8,22.4,23.5L441.3,448c13.2.6,24.1-8.6,24.8-21.2L480,163.5C480.6,151,470.7,140.8,457.6,140.2Zm-355,5.3L95.5,280.3,78.1,305l-16-178v-1a10.29,10.29,0,0,1,9.5-9.4l261-21.4a9.65,9.65,0,0,1,10.5,7.9c0,.2.3.2.3.4s.3.2.3.4l2.7,30.8-219-10.5C114.2,123.8,103.2,133,102.6,145.5ZM436.7,382.4,390,327.1l-27.5-32.7a15.13,15.13,0,0,0-10.6-5.5c-4.3-.2-7.5,1.5-11.1,4.1l-16.4,11.9c-3.5,2.1-6.2,3.5-9.9,3.3a14.24,14.24,0,0,1-9.1-3.8c-.8-.8-2.3-2.2-3.5-3.4l-42.8-48.9a18.91,18.91,0,0,0-13.8-6.7,20.21,20.21,0,0,0-14.8,5.6L129.4,359.8l-6.8,7.4.3-6.8,6.8-128.9,3.3-62.9v-1a11.73,11.73,0,0,1,11.9-9l204.2,9.8,28.7,1.4,58.3,2.8a10.62,10.62,0,0,1,10.4,10.2c0,.2.3.3.3.5s.3.3.3.5Z" transform="translate(-31.93 -64.03)"/><path d="M373.2,262.3A35.2,35.2,0,1,0,338,227.1,35.25,35.25,0,0,0,373.2,262.3Z" transform="translate(-31.93 -64.03)"/></svg>