<svg xmlns="http://www.w3.org/2000/svg" width="29.8" height="22.71" viewBox="0 0 29.8 22.71"><title>image</title><path d="M24.2,8.1a.71.71,0,0,0-.6-.3.6.6,0,0,0-.6.3l-3.7,5.1-2.1-2.5a.71.71,0,0,0-.6-.3.86.86,0,0,0-.6.3L8.9,19.5A.79.79,0,0,0,9,20.6a.76.76,0,0,0,.5.2.86.86,0,0,0,.6-.3l6.5-8.1L18.8,15a.71.71,0,0,0,.6.3A.86.86,0,0,0,20,15l3.6-5L26,13.5a.72.72,0,1,0,1.2-.8ZM5.4,1.5H22.9a.79.79,0,0,0,.8-.78s0,0,0,0A.71.71,0,0,0,23,0H5.4C2,0,0,2,0,5.4V15.7a.79.79,0,0,0,.78.8h0a.74.74,0,0,0,.8-.8V5.4C1.5,2.8,2.8,1.5,5.4,1.5ZM26,1.9H5.9A3.8,3.8,0,0,0,2.1,5.7V18.9a3.8,3.8,0,0,0,3.8,3.8H26a3.8,3.8,0,0,0,3.8-3.8V5.7A3.8,3.8,0,0,0,26,1.9Zm2.3,17A2.33,2.33,0,0,1,26,21.2H5.9a2.33,2.33,0,0,1-2.3-2.3V5.7A2.33,2.33,0,0,1,5.9,3.4H26a2.33,2.33,0,0,1,2.3,2.3ZM12.6,9.8a3,3,0,1,0-3,3A3,3,0,0,0,12.6,9.8Zm-4.4,0a1.5,1.5,0,1,1,1.5,1.5A1.54,1.54,0,0,1,8.2,9.8Z" transform="translate(0 0.01)"/></svg>