<svg xmlns="http://www.w3.org/2000/svg" width="347.61" height="265.11" viewBox="0 0 347.61 265.11"><title>intro</title><path d="M193.37,227.13a39.7,39.7,0,1,1-39.7-39.71A39.7,39.7,0,0,1,193.37,227.13Z" transform="translate(-84.97 -119.94)"/><path d="M130.71,280.61l23,25,26.76-26.76s49,1.72,97.16-32.62c0,0,18.47-12.6,27.46,7.08,0,0,7.93,23.13-19.86,33.31,0,0-61.44,35.73-81.11,36.93V385H85V323.43S86,285.45,130.71,280.61Z" transform="translate(-84.97 -119.94)"/><path d="M188.53,183.8l-15.7-9V132.19s2.92-11.9,13.62-12.25H419.81s13.11,1.73,12.76,14V309.45s-1.2,11.38-13.11,10.52-157.93,0-157.93,0L289,306.16H416.18v-171H188.7Z" transform="translate(-84.97 -119.94)"/><path d="M313.19,231.86h8.73V218.78H291.36v13.09h8.73a34.95,34.95,0,0,0,69.87,0V157.64h-13.1v74.27a21.83,21.83,0,0,1-43.67,0h0Zm48,0a26.2,26.2,0,0,1-52.4,0v-4.38h8.73v-4.37H295.74v4.37h8.72v4.35A30.56,30.56,0,0,0,335,262.45h0a30.57,30.57,0,0,0,30.57-30.56v-48h-4.35v48.06Zm0-52.43V162h4.37v17.47ZM260.79,190.39v2.16a21.82,21.82,0,0,0,21.8,21.84H287a9.36,9.36,0,0,0,6.9-3.6l7.76-11.08c2.76-4,7.25-3.93,10,0l7.73,11.08a9.34,9.34,0,0,0,6.9,3.6h4.39a21.84,21.84,0,0,0,21.85-21.84v-2.16a24,24,0,0,0-24-24H284.76A24,24,0,0,0,260.79,190.39Zm67.73-19.65a19.66,19.66,0,0,1,19.6,19.65v2.16A17.48,17.48,0,0,1,330.64,210h-4.39a5.14,5.14,0,0,1-3.32-1.74l-7.74-11.06c-4.48-6.42-12.65-6.43-17.15,0l-7.74,11.07A5.14,5.14,0,0,1,287,210H282.6a17.45,17.45,0,0,1-17.44-17.46h0v-2.16a19.65,19.65,0,0,1,19.61-19.65Z" transform="translate(-84.97 -119.94)"/></svg>