<svg xmlns="http://www.w3.org/2000/svg" xmlns:xlink="http://www.w3.org/1999/xlink" width="513.28" height="513.28" viewBox="0 0 513.28 513.28"><defs><clipPath id="a" transform="translate(1.36 1.36)"><rect x="2" y="2" width="506.56" height="506.56" rx="200" ry="200" fill="none"/></clipPath><radialGradient id="b" cx="-551.09" cy="1920.66" r="1580.42" gradientTransform="matrix(-0.75, 0, 0, 0.75, -423.64, -937.64)" gradientUnits="userSpaceOnUse"><stop offset="0" stop-color="#f9ed32"/><stop offset="0.36" stop-color="#ee2a7b"/><stop offset="0.44" stop-color="#d22a8a"/><stop offset="0.6" stop-color="#8b2ab2"/><stop offset="0.83" stop-color="#1b2af0"/><stop offset="0.88" stop-color="#002aff"/></radialGradient></defs><title>instagram_contact</title><g clip-path="url(#a)"><rect width="513.28" height="513.28" rx="89.82" ry="89.82" fill="url(#b)"/></g><path d="M338.5,421h-165A82.5,82.5,0,0,1,91,338.5v-165A82.5,82.5,0,0,1,173.5,91h165A82.5,82.5,0,0,1,421,173.5v165A82.5,82.5,0,0,1,338.5,421Zm-165-297A49.57,49.57,0,0,0,124,173.5v165A49.57,49.57,0,0,0,173.5,388h165A49.57,49.57,0,0,0,388,338.5v-165A49.57,49.57,0,0,0,338.5,124Z" transform="translate(1.36 1.36)" fill="#fff"/><path d="M256,349.5A93.5,93.5,0,1,1,349.5,256h0A93.57,93.57,0,0,1,256,349.5Zm0-154A60.5,60.5,0,1,0,316.5,256,60.5,60.5,0,0,0,256,195.5Z" transform="translate(1.36 1.36)" fill="#fff"/><circle cx="350.86" cy="169.36" r="16.5" fill="#fff"/></svg>