<svg xmlns="http://www.w3.org/2000/svg" width="506.56" height="506.56" viewBox="0 0 506.56 506.56"><title>kakao</title><rect width="506.56" height="506.56" rx="200" ry="200" fill="#fdeb1d"/><path d="M301.5,164c3,0,3.5-2.53,3.5-5.65v-1.7c0-3.12-.46-5.65-3.5-5.65s-3.5,2.53-3.5,5.65v1.7C298,161.47,298.46,164,301.5,164ZM282,152c-.24-.66-.67-2-1.94-2a2.17,2.17,0,0,0-2.06,2c-.18,1-1,8-1,8h6S282.24,152.66,282,152ZM255.5,82C150.29,82.72,65,150.44,65,233.29c0,51.83,33.38,97.29,84.14,123.9C146.86,380.77,114.19,420.06,113,421c-1.36,1.08-7.8,7-1,8,7.13,1,80.25-26.12,108.09-49.35A241.44,241.44,0,0,0,255.5,382c105.21-.7,190.5-68.43,190.5-151.27S360.71,81.31,255.5,82ZM292,156c0-7.93,4.48-10,10-10s9,2.19,9,10v3c0,7.5-3.48,10-9,10s-10-1.76-10-10Zm-17-8c.6-1.63,3.07-2,5-2s4.52.55,5,2,5,21,5,21h-6l-1-5h-5.42L276,169h-6S274.4,149.63,275,148Zm-45,0c.6-1.63,3.07-2,5-2s4.52.55,5,2,5,21,5,21h-6l-1-5h-5.42L231,169h-6S229.4,149.63,230,148Zm-27-2h6v10l7-10h7l-8,11,8,12h-7l-7-10v10h-6ZM157,274c0,5.23-3.3,12-10,12s-10-5.43-10-12V209H120c-4.78,0-11-2.83-11-10s6.07-9,10-9h56c3.44,0,10,3.69,10,10s-7.35,9-11,9H157Zm93,12c-8,3-12.94-6.64-14-9s-3.42-10-3.42-10H195.15s-3.26,10.34-5.15,14-8.45,7-14,4-5.3-11-4-14,22.17-61,25-67.34S204.68,190,214,190s13.42,7.52,16,13.66,24,63.92,25,67.34S258,283,250,286Zm4-127v10h-6V146h6v10l7-10h7l-8,11,8,12h-7Zm54,127H277a13.66,13.66,0,0,1-1.62-.11A9.34,9.34,0,0,1,274,286c-6.7,0-10-5.43-10-12V202c0-6.57,3.3-12,10-12s10,6.77,10,12v64h24c6.57,0,12,3.3,12,10S313.23,286,308,286Zm84.65-1.32c-5.35,4-11.25,1.69-15.21-3.55l-25.28-33.48L345,254.81V274c0,5.23-3.3,12-10,12s-10-5.43-10-12V202c0-6.57,3.3-12,10-12s10,6.77,10,12v24.53l32.38-32.38c4.64-4.64,10.82-6.15,15.55-1.42s2.28,11.86-1.41,15.56l-25.08,25.08,27,35.7C396.55,273.25,398,280.64,392.65,284.68ZM201,248h26l-13-38Zm36-96c-.24-.66-.67-2-1.94-2a2.17,2.17,0,0,0-2.06,2c-.18,1-1,8-1,8h6S237.24,152.66,237,152Z" transform="translate(-2 -2)" fill="#332c2b"/></svg>