<svg xmlns="http://www.w3.org/2000/svg" width="506.56" height="506.56" viewBox="0 0 506.56 506.56"><title>light</title><rect width="506.56" height="506.56" rx="200" ry="200"/><path d="M184.55,189.15a96.16,96.16,0,0,0-11,67.94l.2-.2,74.4,74.4-.2.2a96.11,96.11,0,0,0,67.94-11Z" fill="#fff"/><path d="M336.72,306.77,198.24,168.28a26.3,26.3,0,0,1,0-37.18h0a26.3,26.3,0,0,1,37.18,0L373.9,269.57a26.3,26.3,0,0,1,0,37.18h0A26.28,26.28,0,0,1,336.72,306.77Z" fill="#fff"/><rect x="210.79" y="241.54" width="0.16" height="105.23" transform="translate(-146.24 235.34) rotate(-45.01)" fill="#fff"/><path d="M98,332.56a51.38,51.38,0,0,0,0,72.66L99.79,407a51.38,51.38,0,0,0,72.66,0l58.27-58.27-74.4-74.4Zm66.58,25.09-15.49,15.49a12.21,12.21,0,0,1-17.27-17.27l15.49-15.49a12.21,12.21,0,0,1,17.27,17.27Z" fill="#fff"/><path d="M330.62,186.59A12.22,12.22,0,0,1,322,165.73l26.82-26.82a12.21,12.21,0,0,1,17.27,17.27L339.26,183A12.15,12.15,0,0,1,330.62,186.59Z" fill="#fff"/><path d="M378,228.68a12.21,12.21,0,0,1-1.78-24.29l37.52-5.58A12.21,12.21,0,0,1,417.31,223l-37.52,5.58A12.59,12.59,0,0,1,378,228.68Z" fill="#fff"/><path d="M288.55,139.23a11.55,11.55,0,0,1-1.81-.14,12.22,12.22,0,0,1-10.29-13.88L282,87.7a12.21,12.21,0,0,1,24.16,3.59l-5.58,37.52A12.21,12.21,0,0,1,288.55,139.23Z" fill="#fff"/></svg>