<svg xmlns="http://www.w3.org/2000/svg" width="33.6" height="34.5" viewBox="0 0 33.6 34.5"><title>login</title><path d="M17.05,34.75a1.25,1.25,0,0,1,0-2.5,14.75,14.75,0,0,0,0-29.5,1.25,1.25,0,0,1,0-2.5,17.25,17.25,0,0,1,0,34.5Z" transform="translate(-0.7 -0.25)"/><path d="M19.63,18.75H1.95a1.25,1.25,0,1,1,0-2.5H19.63a1.25,1.25,0,0,1,0,2.5Z" transform="translate(-0.7 -0.25)"/><path d="M13.23,26.44a1.25,1.25,0,0,1-.88-2.14l6.38-6.39a.59.59,0,0,0,0-.84h0L12.35,10.7a1.25,1.25,0,0,1,1.74-1.8l0,0,6.38,6.38a3.1,3.1,0,0,1,0,4.37l-6.39,6.39A1.25,1.25,0,0,1,13.23,26.44Z" transform="translate(-0.7 -0.25)"/></svg>