<svg xmlns="http://www.w3.org/2000/svg" width="34.41" height="34.5" viewBox="0 0 34.41 34.5"><title>logout</title><path d="M17.54,34.75a17.25,17.25,0,1,1,0-34.5,1.25,1.25,0,0,1,0,2.5,14.75,14.75,0,1,0,0,29.5,1.25,1.25,0,0,1,0,2.5Z" transform="translate(-0.29 -0.25)"/><path d="M32.93,18.75H15.25a1.25,1.25,0,0,1,0-2.5H32.93a1.25,1.25,0,0,1,0,2.5Z" transform="translate(-0.29 -0.25)"/><path d="M26.54,26.44a1.25,1.25,0,0,1-.88-2.13L32,17.92a.6.6,0,0,0,0-.84L25.65,10.7a1.25,1.25,0,0,1,1.77-1.77l6.38,6.38a3.1,3.1,0,0,1,0,4.37l-6.38,6.39A1.25,1.25,0,0,1,26.54,26.44Z" transform="translate(-0.29 -0.25)"/></svg>