<svg xmlns="http://www.w3.org/2000/svg" width="506.56" height="506.56" viewBox="0 0 506.56 506.56"><title>many_dive</title><rect width="506.56" height="506.56" rx="200" ry="200"/><path d="M160.25,397.74h17V372.27h-59.5v25.47h17a68,68,0,0,0,136,0V253.28h-25.5V397.84a42.5,42.5,0,0,1-85-.07h0Zm93.5.06a51,51,0,0,1-102,0v-8.53h17v-8.5H126.28v8.5h17v8.47a59.49,59.49,0,0,0,59.45,59.52h0a59.5,59.5,0,0,0,59.5-59.48V304.28h-8.47V397.8Zm0-102.05v-34h8.5v34ZM58.26,317v4.21a42.47,42.47,0,0,0,42.43,42.5h8.54a18.22,18.22,0,0,0,13.44-7l15.1-21.56c5.38-7.71,14.12-7.64,19.45,0l15,21.56a18.17,18.17,0,0,0,13.44,7h8.54a42.52,42.52,0,0,0,42.53-42.5V317a46.78,46.78,0,0,0-46.66-46.75H104.92A46.74,46.74,0,0,0,58.26,317ZM190.1,278.78A38.28,38.28,0,0,1,228.25,317v4.21a34,34,0,0,1-34,34h-8.54a10,10,0,0,1-6.47-3.38l-15.06-21.53c-8.72-12.5-24.62-12.52-33.38,0L115.7,351.88a10,10,0,0,1-6.47,3.39H100.7a34,34,0,0,1-33.95-34h0v-4.21a38.24,38.24,0,0,1,38.16-38.25Z" fill="#fff"/><path d="M317.51,220h17V194.48H275V220h17a68,68,0,0,0,136,0V75.49h-25.5V220.05a42.5,42.5,0,0,1-85-.07h0ZM411,220a51,51,0,0,1-102,0v-8.53h17V203H283.54v8.5h17V220A59.49,59.49,0,0,0,360,279.48h0A59.5,59.5,0,0,0,419.48,220V126.49H411V220ZM411,118V84h8.5v34ZM215.52,139.24v4.21A42.47,42.47,0,0,0,258,186h8.54a18.22,18.22,0,0,0,13.44-7L295,157.37c5.38-7.71,14.12-7.64,19.45,0l15,21.56A18.17,18.17,0,0,0,343,186h8.54A42.52,42.52,0,0,0,394,143.45v-4.21a46.78,46.78,0,0,0-46.66-46.75H262.18A46.74,46.74,0,0,0,215.52,139.24ZM347.36,101a38.28,38.28,0,0,1,38.15,38.25v4.21a34,34,0,0,1-34,34h-8.54a10,10,0,0,1-6.47-3.38l-15.06-21.53c-8.72-12.5-24.62-12.52-33.38,0L273,174.09a10,10,0,0,1-6.47,3.39H258a34,34,0,0,1-33.95-34h0v-4.21A38.24,38.24,0,0,1,262.18,101Z" fill="#fff"/><rect x="135.56" y="155.17" width="13.24" height="68" rx="6.62" ry="6.62" fill="#fff"/><rect x="108.18" y="182.55" width="68" height="13.24" rx="6.62" ry="6.62" fill="#fff"/></svg>