<svg xmlns="http://www.w3.org/2000/svg" width="30" height="30" viewBox="0 0 30 30"><title>messageCircle</title><path d="M25.5,13a.5.5,0,0,1-.38-.18L22.77,10H21.5a.5.5,0,0,1,0-1H23a.5.5,0,0,1,.38.18L25,11.12V9.5a.5.5,0,0,1,.5-.5h1a.5.5,0,0,0,.5-.5v-6a.5.5,0,0,0-.5-.5h-12a.5.5,0,0,0-.5.5v3a.5.5,0,0,1-1,0v-3A1.5,1.5,0,0,1,14.5,1h12A1.5,1.5,0,0,1,28,2.5v6A1.5,1.5,0,0,1,26.5,10H26v2.5a.5.5,0,0,1-.5.5Z" transform="translate(-1 -1)"/><path d="M4.5,23l-.16,0A.5.5,0,0,1,4,22.5V19H2.5A1.5,1.5,0,0,1,1,17.5v-9A1.5,1.5,0,0,1,2.5,7h16A1.5,1.5,0,0,1,20,8.5v4a.5.5,0,0,1-1,0v-4a.5.5,0,0,0-.5-.5H2.5a.5.5,0,0,0-.5.5v9a.5.5,0,0,0,.5.5h2a.5.5,0,0,1,.5.5V21l2.1-2.8a.5.5,0,0,1,.4-.2h1a.5.5,0,0,1,0,1H7.75L4.9,22.8A.5.5,0,0,1,4.5,23Z" transform="translate(-1 -1)"/><path d="M19.5,4h0a.5.5,0,0,0,0-1h0a.5.5,0,0,0,0,1Z" transform="translate(-1 -1)"/><path d="M17.52,4h0a.5.5,0,0,0,0-1h0a.5.5,0,0,0,0,1Z" transform="translate(-1 -1)"/><path d="M15.52,4h0a.5.5,0,0,0,0-1h0a.5.5,0,1,0,0,1Z" transform="translate(-1 -1)"/><path d="M7.5,10h0a.5.5,0,0,0,0-1h0a.5.5,0,0,0,0,1Z" transform="translate(-1 -1)"/><path d="M5.52,10h0a.5.5,0,1,0,0-1h0a.5.5,0,0,0,0,1Z" transform="translate(-1 -1)"/><path d="M3.52,10h0a.5.5,0,0,0,0-1h0a.5.5,0,1,0,0,1Z" transform="translate(-1 -1)"/><path d="M7.5,30h0a.5.5,0,0,0,0-1h0a.5.5,0,0,0,0,1Z" transform="translate(-1 -1)"/><path d="M5.52,30h0a.5.5,0,0,0,0-1h0a.5.5,0,1,0,0,1Z" transform="translate(-1 -1)"/><path d="M3.52,30h0a.5.5,0,0,0,0-1h0a.5.5,0,1,0,0,1Z" transform="translate(-1 -1)"/><path d="M7.5,3h0a.5.5,0,0,0,0-1h0a.5.5,0,0,0,0,1Z" transform="translate(-1 -1)"/><path d="M5.5,3h0a.5.5,0,0,0,0-1h0a.5.5,0,0,0,0,1Z" transform="translate(-1 -1)"/><path d="M3.5,3h0a.5.5,0,0,0,0-1h0a.5.5,0,0,0,0,1Z" transform="translate(-1 -1)"/><path d="M20.5,5.5h0Z" transform="translate(-1 -1)"/><path d="M24.5,6h-4a.5.5,0,0,1,0-1h4a.5.5,0,0,1,0,1Z" transform="translate(-1 -1)"/><path d="M15.5,5.5h0Z" transform="translate(-1 -1)"/><path d="M18.5,6h-3a.5.5,0,0,1,0-1h3a.5.5,0,0,1,0,1Z" transform="translate(-1 -1)"/><path d="M4.5,14.5h0Z" transform="translate(-1 -1)"/><path d="M7.5,15h-3a.5.5,0,0,1,0-1h3a.5.5,0,0,1,0,1Z" transform="translate(-1 -1)"/><path d="M4.5,12.5h0Z" transform="translate(-1 -1)"/><path d="M16.5,13H4.5a.5.5,0,0,1,0-1h12a.5.5,0,0,1,0,1Z" transform="translate(-1 -1)"/><path d="M27.5,31a.5.5,0,0,1-.4-.2L24.25,27H11.5A1.5,1.5,0,0,1,10,25.5v-10A1.5,1.5,0,0,1,11.5,14h18A1.5,1.5,0,0,1,31,15.5v10A1.5,1.5,0,0,1,29.5,27H28v3.5a.5.5,0,0,1-.34.48Zm-16-16a.5.5,0,0,0-.5.5v10a.5.5,0,0,0,.5.5h13a.5.5,0,0,1,.4.2L27,29V26.5a.5.5,0,0,1,.5-.5h2a.5.5,0,0,0,.5-.5v-10a.5.5,0,0,0-.5-.5Z" transform="translate(-1 -1)"/><path d="M17.5,17h0a.5.5,0,0,0,0-1h0a.5.5,0,0,0,0,1Z" transform="translate(-1 -1)"/><path d="M15.52,17h0a.5.5,0,0,0,0-1h0a.5.5,0,1,0,0,1Z" transform="translate(-1 -1)"/><path d="M13.52,17h0a.5.5,0,0,0,0-1h0a.5.5,0,1,0,0,1Z" transform="translate(-1 -1)"/><path d="M13.5,23.5h0Z" transform="translate(-1 -1)"/><path d="M18.5,24h-5a.5.5,0,0,1,0-1h5a.5.5,0,0,1,0,1Z" transform="translate(-1 -1)"/><path d="M13.5,21.5h0Z" transform="translate(-1 -1)"/><path d="M16.5,22h-3a.5.5,0,0,1,0-1h3a.5.5,0,0,1,0,1Z" transform="translate(-1 -1)"/><path d="M23.5,19.5h0Z" transform="translate(-1 -1)"/><path d="M27.5,20h-4a.5.5,0,0,1,0-1h4a.5.5,0,0,1,0,1Z" transform="translate(-1 -1)"/><path d="M18.5,21.5h0Z" transform="translate(-1 -1)"/><path d="M23.5,22h-5a.5.5,0,0,1,0-1h5a.5.5,0,0,1,0,1Z" transform="translate(-1 -1)"/><path d="M13.5,19.5h0Z" transform="translate(-1 -1)"/><path d="M21.5,20h-8a.5.5,0,0,1,0-1h8a.5.5,0,0,1,0,1Z" transform="translate(-1 -1)"/></svg>