<svg xmlns="http://www.w3.org/2000/svg" width="768" height="1280" viewBox="0 0 768 1280"><title>mphone</title><path d="M976,1408q0-33-23.5-56.5T896,1328q-33,0-56.5,23.5T816,1408q0,33,23.5,56.5T896,1488q33,0,56.5-23.5T976,1408Zm208-160V544a32.45,32.45,0,0,0-32-32H640a32.45,32.45,0,0,0-32,32v704a32.45,32.45,0,0,0,32,32h512a32.45,32.45,0,0,0,32-32ZM992,400q0-16-16-16H816q-16,0-16,16t16,16H976Q992,416,992,400Zm288-16V1408q0,52-38,90t-90,38H640q-52,0-90-38t-38-90V384q0-52,38-90t90-38h512q52,0,90,38T1280,384Z" transform="translate(-512 -256)"/></svg>