<svg xmlns="http://www.w3.org/2000/svg" width="506.56" height="506.56" viewBox="0 0 506.56 506.56"><title>oceanjet</title><rect width="506.56" height="506.56" rx="200" ry="200"/><path d="M431.85,289.21H75.24a13.5,13.5,0,0,0-9.51,3.57c-1.19,3.57-2.38,7.13-2.38,9.51L64.54,313a95.94,95.94,0,0,0,95.1,82H346.26c47.55,0,88-35.66,95.1-82l1.19-10.7c0-3.57,0-7.13-2.38-9.51C439,290.39,435.42,289.21,431.85,289.21Z" fill="#fff"/><path d="M372.41,170.34H351l9.51-45.17a9.24,9.24,0,0,0-2.38-9.51,10.81,10.81,0,0,0-9.51-4.75H301.09c-5.94,0-10.7,3.57-11.89,9.51l-9.51,49.93H255.92l9.51-45.17a9.24,9.24,0,0,0-2.38-9.51,10.81,10.81,0,0,0-9.51-4.75H206c-5.94,0-10.7,3.57-11.89,9.51l-9.51,49.93H163.2c-14.26,0-28.53,9.51-33.28,22.59l-9.51,25h49.93c7.13,0,11.89,4.75,11.89,11.89s-4.75,11.89-11.89,11.89H112.09l-9.51,23.77h305.5V206C408.08,185.79,392.62,170.34,372.41,170.34Zm-158.1,67.76a10.79,10.79,0,0,1-8.32,3.57c-1.19,0-3.57,0-4.75-1.19s-2.38-1.19-3.57-2.38a1.16,1.16,0,0,0-1.19-1.19c0-1.19-1.19-1.19-1.19-2.38s0-1.19-1.19-2.38v-2.38c0-1.19,0-3.57,1.19-4.75,0-1.19,1.19-2.38,2.38-3.57s2.38-2.38,3.57-2.38c2.38-1.19,4.75-1.19,7.13-1.19,1.19,0,1.19,0,2.38,1.19,1.19,0,1.19,1.19,2.38,1.19a4.15,4.15,0,0,0,2.38,1.19c1.19,1.19,2.38,2.38,2.38,3.57s1.19,3.57,1.19,4.75C217.88,233.34,216.69,235.71,214.32,238.09Zm35.66,0a10.79,10.79,0,0,1-8.32,3.57c-1.19,0-3.57,0-4.75-1.19s-2.38-1.19-3.57-2.38a1.16,1.16,0,0,0-1.19-1.19c0-1.19-1.19-1.19-1.19-2.38s0-1.19-1.19-2.38v-2.38c0-1.19,0-3.57,1.19-4.75,0-1.19,1.19-2.38,2.38-3.57s2.38-2.38,3.57-2.38c2.38-1.19,4.75-1.19,7.13-1.19,1.19,0,1.19,0,2.38,1.19,1.19,0,1.19,1.19,2.38,1.19a4.15,4.15,0,0,0,2.38,1.19c1.19,1.19,2.38,2.38,2.38,3.57s1.19,3.57,1.19,4.75C253.54,233.34,252.36,235.71,250,238.09Zm35.66,0a10.79,10.79,0,0,1-8.32,3.57c-1.19,0-3.57,0-4.75-1.19s-2.38-1.19-3.57-2.38a1.16,1.16,0,0,0-1.19-1.19c0-1.19-1.19-1.19-1.19-2.38s0-1.19-1.19-2.38v-2.38c0-1.19,0-3.57,1.19-4.75,0-1.19,1.19-2.38,2.38-3.57s2.38-2.38,3.57-2.38c2.38-1.19,4.75-1.19,7.13-1.19,1.19,0,1.19,0,2.38,1.19,1.19,0,1.19,1.19,2.38,1.19a4.15,4.15,0,0,0,2.38,1.19c1.19,1.19,2.38,2.38,2.38,3.57s1.19,3.57,1.19,4.75C289.21,233.34,288,235.71,285.64,238.09Z" fill="#fff"/></svg>