<svg xmlns="http://www.w3.org/2000/svg" width="506.56" height="506.56" viewBox="0 0 506.56 506.56"><title>padi</title><rect width="506.56" height="506.56" rx="200" ry="200"/><path d="M318.51,233.37c11.47,4.41,24.43,5.88,37.6,6.51,0,0,.72-.23,1.07,1s-1.49,1.47-1.49,1.47c-18.06.42-45.36-4.16-50.33-7.05-4.42-9.07-11.91-8.48-18.07-12-.21-2.31,1.48-2.94,3.19-4,10.62,1.46,17.84,10.91,28,14.06" fill="#fff"/><path d="M238.84,224.76c2.12,5.25-3.62,12.69,5.09,14.79,3.83,1.1,5.58,2.27,9.78-1.15a4.67,4.67,0,0,0,1.06-6.09c-1.6-2.18-2.55-4.61-2.13-6.51l.43-.42c2.9,0,3.61,7.35,7.65,10.08,6-9.45,18.06-.21,24.65-8.19,4.89,1.68,11.47,2.52,13.6,7.55-3.82,1.68-8.71,1.05-12.75,2.52-13.17,5-30.08,19.47-43.34,6.08l-14.66-18.68c2.76-2.1,7,0,10.62,0" fill="#fff"/><path d="M178.61,117.88c-4.5,2.12-5.62,8-10.08,11.19-8.54-2.93-14.88-2.17-21.89,3.15-1.7-3.57.43-6.93,2.55-9.66,7.22-7.76,18.48,3.15,25.5-5.46,2.16-1.89,5.61-.53,3.92.78" fill="#fff"/><path d="M193.59,118.16c1.39,2.85-.38,8.21-2.56,9-6.9,1.93-12.74,7.14-20,4,3.62-5.25,7.44-10.1,15.31-8.64,2.55-.42,6.18-5.35,7.22-4.37" fill="#fff"/><path d="M179.14,133.68c2.12,3.78-1.4,6.59-3.8,9.39a21.13,21.13,0,0,1-16.6,3.2c-2.76-1.05-5.74-4.2-9.14-2.52-4.89,4.83,4.69,7.16,3,12-4.54.19-7.5.6-11.3,2.63-3-7.13,4.92-10.37,4.28-17.56-.21-1.84,5.38-8.68,11.69-9.65,8.92-3.15,13.8,11.12,21.88,2.52" fill="#fff"/><path d="M153.65,161.81c1.07,3.37,2.12,7.34-1.49,9.23-4.63,1.17-7.5-2.52-9-6.09a5.85,5.85,0,0,1,3.89-6.28c3-.63,6.16.4,6.59,3.14" fill="#fff"/><path d="M205.27,162.85c3.83,3.14,4.88,7.55,5.1,12.17-.85,4.61-2.12,9.23-6.16,12.59-4.89,4.83-13.38,1.68-18.91,5.45-1.7.42-3.65-.61-5-1.57,2.22-1.27,2.62.31,6.44-6.4,7.86,1,9.09-6.87,12.32-12.17,1.06-7.56-19.55-9.66-6.58-14.48,4.67.21,9.35.84,12.74,4.41" fill="#fff"/><path d="M342.94,183.63a110.39,110.39,0,0,1,24.43,30.64c-5.1,2.73-9.56,9-16.35,6.5-3-2.72-7.86,1.47-9.14-3.56a43,43,0,0,0-9.14-23.5c3-1.05,5.1-5.88,1.49-8.19-5.1-4.61-10.19-9.23-16.35-11.54.63-4,5.31-4,8.28-2.94l16.78,12.59" fill="#fff"/><path d="M170.65,202.1c-1.49,2.93-5.53,2.93-8.28,2.1-13.39-5.67-7.44-21-14.66-30.22,2.76-.21,7.22,1.05,9.14-2.94,1.06,11.33,18.69,17.41,13.81,31.06" fill="#fff"/><path d="M226.74,173.56c14.23,5.88,28.46,12.17,42.27,19.1,0,0,1.46,1.75,0,1.89s-12.31,2.27-15.69-3.46c-.69-.26-20.16-6.93-31.26-5.31a12.92,12.92,0,0,0-8.07-4.67c-4.46-8.61,7.65-10.07,12.75-7.55" fill="#fff"/><path d="M302.51,195.16c-10.59,9.24-28.81,23.47-46.65,24.8a41.54,41.54,0,0,0,2.27-21.85c14.44,2.1,23.66-.81,33.53-10.73,6.22-6.72,18.36-1.86,23.24-9.42,3.5-1.84,11.38,2.9,15.72,8.19,1.06,2.1-1.27,3.15-3,2.94-9.67-2.41-18,.85-25.13,6.08" fill="#fff"/><path d="M218.45,186.57c-2.12,4.66-2.34,9.44,1.06,13,5.1,5.67,12.32,6.09,19.33,7.14.42,4.83,1.81,9.44,1,14.06-7,.43-14.29-.39-21.77-.6-12-.33-18.86-3.12-30.33-7-6.15-2.53-13.34-3.35-14.61-6-.83-1.75,2.35-12,2.35-12,6-3.36,11.36,4.62,17.09-1,8.5.63,14.87-4.2,19.33-10.49a11.1,11.1,0,0,1,6.59,2.94" fill="#fff"/><path d="M252.65,194.1c4.58,4,1.7,11.57,1.49,17.23-1.06,4.62-1.91,9.23-3,14.06-3.38.92-5.52,0-7.64-1.05l-1.06-19.72c-7.65-3.35-19.46-.42-22.64-10.07-.21-2.52,1.61-4.83,3.73-5.88,10.55-.95,28.27,4.53,29.1,5.43" fill="#fff"/><path d="M242.56,236.25c-2.41-1.48-1.62-3.72-.41-6.47.94-2.27,4.18-1.87,6.31-1.45a6.73,6.73,0,0,1,4,5.93s-2.43,6.57-9.93,2" fill="#fff"/><path d="M176.13,190.29a6.05,6.05,0,1,0-5.95-6.05,6,6,0,0,0,5.95,6.05" fill="#fff"/><path d="M182.18,161.9l12.88,8.44s1.84,1.58,0,4.48-3.94,6.06-3.94,6.06-1.05,2.1-3.81,0S174,172.31,174,172.31a2.31,2.31,0,0,1-.66-3.56c1.58-2.37,4.73-6.59,4.73-6.59a3,3,0,0,1,4.08-.26" fill="#fff"/><path d="M266.2,269.06h-29c-3.33,0-4.79,2.51-3.23,5.58l12,22.61c2.66,5.5,7.56,5.85,11.23.36l12.22-23c1.56-3.07.1-5.58-3.23-5.58" fill="#fff" fill-rule="evenodd"/><path d="M222.15,168.68c6.11.73,14.61,4.25,24.34,8.4h40a5.7,5.7,0,0,0,5.73-6.06L289.6,144.8a7.24,7.24,0,0,0-6.93-6h-61.9a7.24,7.24,0,0,0-6.93,6l-1.76,17.92c1.46,2.88,1.06,5.67,1.28,6.65.17.74,3.35-1.33,8.8-.68" fill="#fff" fill-rule="evenodd"/><path d="M236.33,90.91H267.1c3.33,0,4.81-2.52,3.28-5.61l-12.57-24c-2.87-5.88-9.53-5.53-12.5.46L233,85.3c-1.52,3.09,0,5.61,3.29,5.61" fill="#fff" fill-rule="evenodd"/><path d="M282.33,221c1.28-.75,2.9-1.94,3.81-2.37a6.72,6.72,0,0,0,3.17-3.63s1.83-3.55.49-4.7c-.41-.36-20.84,9.87-21.53,10.7-1.21,1.44,11.16,1.69,14.06,0" fill="#fff" fill-rule="evenodd"/><path d="M275.59,193.71c4.35.94,10-5.66,14.91-9.67a5.68,5.68,0,0,0-4.07-1.69H259c1.69.68,3.4,1.37,5.13,2,9.58,3.7,9.93,9,11.45,9.31" fill="#fff"/><path d="M269.44,95.4H234a9.41,9.41,0,0,0-8.17,5.69l-8.45,26.56a4.42,4.42,0,0,0,4.49,5.86h59.75a4.43,4.43,0,0,0,4.49-5.86l-8.46-26.56a9.41,9.41,0,0,0-8.18-5.69" fill="#fff"/><path d="M260.89,230.72c1.19.52.54-1,12.26-2.93,5.64.68,7-.91,7.5-1.52H260.88c-2.1,2.5-1,4,0,4.45" fill="#fff" fill-rule="evenodd"/><path d="M241.21,247.73c-6.14-4.56-15.84-19.1-17.21-20.53a6.94,6.94,0,0,0-2.09-.93,4.35,4.35,0,0,0-4.12,5.83l8.81,26.78a9.51,9.51,0,0,0,8.23,5.66H268.6a9.51,9.51,0,0,0,8.23-5.66l5-15.15c-2.25,1-4.83,2.25-7.84,3.81-18.93,9.83-26.51,4.85-32.76.18" fill="#fff" fill-rule="evenodd"/><path d="M347.53,138.46c-4.73,0-3.55,4.78-3.55,4.78a140.6,140.6,0,0,1,4.35,28.49s.79,4.91,5,5h28.13c5.39-.18,5.74-6.09,5.74-6.09a114.52,114.52,0,0,0-4.64-26.35s-2.41-5.72-8.45-5.85H347.53" fill="#fff" fill-rule="evenodd"/><path d="M381.18,182H353.31a4.6,4.6,0,0,0-4.14,2.32,156.33,156.33,0,0,1,17.52,19.92c6.66,9.25,4.25,10.8,2.62,12.66a20.68,20.68,0,0,1-5.88,3.75h10.65c6.44-.07,8.25-6.19,8.25-6.19a114.88,114.88,0,0,0,4.81-26.42s.21-6-6-6" fill="#fff" fill-rule="evenodd"/><path d="M324.14,99.8c7.4,10,11.07,17.38,15,28.18,0,0,2,5.08,7.35,5.2h26.29c7.16,0,4.54-6.33,4.54-6.33-4.5-11.24-9.47-17.75-17.43-27.58-3.15-3.43-9.51-4.2-9.51-4.2H328.26c-6.91,0-4.12,4.73-4.12,4.73" fill="#fff" fill-rule="evenodd"/><path d="M272.61,54.1a125.65,125.65,0,0,1,39.78,31.16c6.4,6.49,11.75,5.31,11.75,5.31h21s8.06.07,3.37-5.19c-19.17-20-43.93-29.8-71.9-34.69" fill="#fff"/><path d="M263.58,58.19c5.15,7.48,9.12,19.58,13.06,27.1,0,0,1,5.3,7.8,5.27h20.24c7,0,1-5.46,1-5.46A120.66,120.66,0,0,0,267.9,56.77" fill="#fff" fill-rule="evenodd"/><path d="M299.42,133.19h30.76c5.79.2,3.33-5.26,3.33-5.26A135.66,135.66,0,0,0,318.39,100s-1.35-4.94-8.45-5h-23.4c-5.39,0-2.72,4.92-2.72,4.92A206.83,206.83,0,0,1,293,128s1.21,5.16,6.47,5.22" fill="#fff" fill-rule="evenodd"/><path d="M329.66,225.94H312.43c1.76.95,3.19,1.66,4,2A109.37,109.37,0,0,0,332,232.64c.26-.6.52-1.19.78-1.79,0,0,2.31-5-3.08-4.91" fill="#fff" fill-rule="evenodd"/><path d="M289.77,240.81q-2.93,9.41-6.69,18.42s-3.89,5,2.94,5h21.56c5.91,0,9.06-4.94,9.06-4.94a135.3,135.3,0,0,0,9.4-14.64c-7.51-1.54-18.27-3.86-24.65-4.08-4-.14-6.25-1.15-11.62.25" fill="#fff" fill-rule="evenodd"/><path d="M296,216.45c.35,1.27,4.48,4.19,7.13,4.22s28.63,0,28.63,0a6,6,0,0,0,5.39-2.8c0-.31,0-.59,0-.79-.09-2.07.46-6.14-3.36-15.48-4.18-10.26-12.23-10.55-18.89-8.72-7.55,2.08-16.29,9-17.27,11.16s-2,10.63-2,10.63a6.58,6.58,0,0,0,.33,1.78" fill="#fff" fill-rule="evenodd"/><path d="M324.43,166.31c3.31.6,9.24,4.47,15.92,10.06a4.14,4.14,0,0,0,2.66-4.65,136.4,136.4,0,0,0-4.4-28.39s-.54-4.68-6.06-4.87H300.21c-4.47-.07-4,4.81-4,4.81A210.79,210.79,0,0,1,299,171.72s1.41,6.13,6.14,6.11h4.47a5.75,5.75,0,0,0,3.83-3.71c.65-3.06,3.25-9.21,11-7.81" fill="#fff" fill-rule="evenodd"/><path d="M343.78,268.87h-21s-5.34-1.18-11.74,5.31a125.67,125.67,0,0,1-39.79,31.15c-5.23,2.73-3.22,4.37,4,3.41,28-4.89,52.72-14.64,71.89-34.7,4.69-5.25-3.37-5.18-3.37-5.18" fill="#fff" fill-rule="evenodd"/><path d="M304.32,274.34s5.93-5.48-1-5.47H283.05c-6.84,0-7.8,5.28-7.8,5.28-3.94,7.52-7.91,19.62-13.07,27.1-1.71,2.89.21,3.08,4.33,1.44a121,121,0,0,0,37.81-28.34" fill="#fff" fill-rule="evenodd"/><path d="M181.45,259.67A139.94,139.94,0,0,1,166,231.1s-.6-4.9-6.38-4.83H132c-6,.19-4.28,6.42-4.28,6.42,4.26,10,9.69,18.34,16.14,26.92,0,0,1.67,5,9.17,4.95h27.34c4.34,0,1.11-4.88,1.11-4.88" fill="#fff" fill-rule="evenodd"/><path d="M139.37,165.59c-1.36-1.74.72-3.57,0-4.21-5.87-5.56-1.64-9.89-.3-13.47a55,55,0,0,0,2.63-9.12H130.39c-6,.13-8.46,5.85-8.46,5.85A114.49,114.49,0,0,0,117.3,171s.35,5.91,5.74,6.09h22.29c-.06-.23-.12-.43-.16-.57a38,38,0,0,0-5.8-10.92" fill="#fff" fill-rule="evenodd"/><path d="M148.5,191.53a77,77,0,0,0-1.71-9.17h-23.5c-6.17,0-6,6-6,6,.58,9.83,2.22,17.26,4.81,26.42,0,0,1.81,6.12,8.26,6.19h27.08c5.39-.07,4.26-6.86,4.26-6.86-.26-2.83-.82-3.57-2.84-6.61-3.3-2.11-9.39-7.66-10.38-16" fill="#fff" fill-rule="evenodd"/><path d="M145.43,121c3.64-5.52,15-4.37,18.55-4.4a20.81,20.81,0,0,0,6.78-1.19,100.92,100.92,0,0,1,9.57-15.28s2.79-4.7-4.13-4.72H154.11a15.21,15.21,0,0,0-9.52,4.2c-8,9.84-12.91,16.35-17.42,27.58,0,0-2.63,6.34,4.54,6.34h10.24c-.67-3.79-.23-6.89,3.49-12.52" fill="#fff" fill-rule="evenodd"/><path d="M227.83,51c-28,4.89-52.72,14.65-71.89,34.7-4.69,5.25,4.42,5.18,4.42,5.18h20s5.34,1.18,11.74-5.31a125.79,125.79,0,0,1,39.78-31.15" fill="#fff" fill-rule="evenodd"/><path d="M236.58,57.11a120.74,120.74,0,0,0-37.81,28.34s-5.94,5.49,1,5.46H220c6.84,0,7.8-5.27,7.8-5.27,3.94-7.52,7.91-19.62,13.06-27.09" fill="#fff" fill-rule="evenodd"/><path d="M184.59,119.48c8.44-4,10.32-7.91,11.31-4.89,4.4,13.45-4.85,16.16-7.2,17.33a7.34,7.34,0,0,0-2.43,1.6H205c5.26-.07,6.47-5.23,6.47-5.23a207.33,207.33,0,0,1,9.13-28s2.68-4.89-2.71-4.92h-23.4c-7.1,0-8.45,5-8.45,5a135.85,135.85,0,0,0-8.34,13.44h0c6.67.39,3.24,7.38,6.83,5.68" fill="#fff" fill-rule="evenodd"/><path d="M196.9,264.55h21.56c6.84,0,2.95-5,2.95-5a207.47,207.47,0,0,1-9.56-28.51s-.22-4.86-6.26-4.79H174.82c-5.39-.07-3.08,4.91-3.08,4.91a136.26,136.26,0,0,0,16.11,28.44s3.14,5,9.05,4.93" fill="#fff" fill-rule="evenodd"/><path d="M165.7,209.6a17.81,17.81,0,0,0,.7,6.23,6.14,6.14,0,0,0,6.31,5.17h28.15c-4.9-1.35-22.45-6.31-28.47-9.63-4.23-2.33-6.53-2.69-6.7-1.76" fill="#fff" fill-rule="evenodd"/><path d="M165.46,150.73c-.55,0-1,.07-1.29.12a136.29,136.29,0,0,0-2.67,20.75,10,10,0,0,0,1.92,3.37c.77.87,6.72,5.32,8.88,2.11.9-1.34.49-1,.46-1.45-.18-2.46-3.07-3-3.19-4.59-.08-1.07,3.57-8.87,7.29-11.91,1.88-1.53,3.41-1.27,5.24.47s7.15-5.33,13.85-4.67a30.86,30.86,0,0,1,10.45,2.61q.72-7,1.9-13.93s.42-4.87-4.05-4.8h-21l-.48,1c-5,10.71-14.57,10.7-17.29,10.92" fill="#fff" fill-rule="evenodd"/><path d="M233.25,305.68a125.74,125.74,0,0,1-39.78-31.16c-6.4-6.49-11.74-5.31-11.74-5.31h-21s-8.06-.07-3.37,5.19c19.17,20,43.93,29.8,71.89,34.7,7.26,1,9.27-.68,4-3.41" fill="#fff" fill-rule="evenodd"/><path d="M229.23,274.49s-1-5.29-7.8-5.28H201.18c-7,0-1,5.47-1,5.47A120.75,120.75,0,0,0,238,303c4.11,1.64,6,1.46,4.32-1.44-5.15-7.47-9.12-19.58-13.06-27.09" fill="#fff"/><path d="M156.54,162.07s5.26-12.12.53-13.83c-3.49-1.26-4.43.25-3.42,2.08s3.62,3.44,1.71,8.13c-.79,1.91,1.19,3.62,1.19,3.62" fill="#fff" fill-rule="evenodd"/><path d="M344.82,225.93h27.68c6,.19,4.27,6.42,4.27,6.42-4.25,10-9.69,17.29-16.14,25.86a11.21,11.21,0,0,1-10.22,6H324.14c-4.34,0-1.11-4.88-1.11-4.88a139.91,139.91,0,0,0,8.46-13.63c.68.12,1.26.21,1.73.27,15.33,1.75,24.9.92,26.09-.44,1.6-1.84,8.87-11.94-13.4-11.32a49.54,49.54,0,0,1-8.58-.59c.4-1,.48-2,.86-3,0,0,.85-4.81,6.64-4.74" fill="#fff"/><path d="M376.08,326.26a3.89,3.89,0,0,1,0,5.45,3.81,3.81,0,0,1-5.42,0,3.89,3.89,0,0,1,0-5.45,3.81,3.81,0,0,1,5.42,0Zm.44-.43a4.47,4.47,0,1,0,1.31,3.15A4.3,4.3,0,0,0,376.52,325.83ZM374,328.77a2.33,2.33,0,0,1-.82.11h-.77V327.1h.73a2.21,2.21,0,0,1,1,.18.88.88,0,0,1-.18,1.48Zm-2.46,2.64h.86v-1.93h.67a2,2,0,0,1,1,.16,1.19,1.19,0,0,1,.46,1.12v.39l0,.16a.26.26,0,0,0,0,.06v0h.81l0-.06a.65.65,0,0,1,0-.25c0-.13,0-.26,0-.37v-.36a1.33,1.33,0,0,0-.27-.76,1.19,1.19,0,0,0-.84-.48,1.91,1.91,0,0,0,.71-.24,1.07,1.07,0,0,0,.48-1,1.22,1.22,0,0,0-.76-1.24,3.76,3.76,0,0,0-1.34-.17h-1.71v4.9" fill="#fff"/><path d="M236.22,325.46l28.9,83.91h-80.7L200.61,359c6.4,0,14.06.08,21.09,0L212,390.35h24.76l-21.85-64.84,21.29-.05" fill="#fff"/><path d="M306.9,325.51H269.68l0,20h26c12.36,0,22.2,9.37,22.2,21.76s-10.21,21.83-22.57,21.83h-5.78V358.56H269.68V409H306.9c19.09-1.74,32.86-21.29,32.86-41.74s-15.22-40-32.86-41.75" fill="#fff"/><path d="M195.69,351.71c0-14.56-12.09-25.94-26.47-26.43h-31v19.91h28.32a6.58,6.58,0,0,1,6.45,6.52,6.92,6.92,0,0,1-6.63,6.91H138.23v50.44h19.86V378.53l11.2,0c14.49-.76,26.4-12.23,26.4-26.77" fill="#fff"/><rect x="344.73" y="325.51" width="20.56" height="83.52" fill="#fff"/><path d="M145.91,437.46c0-3.23,1.22-6.5,6.32-6.5,4.73,0,6.32,3,6.32,6.2,0,2.4-1.33,6.12-6.11,6.12S145.91,440.47,145.91,437.46Zm0-10.57h-7.12V455h7.44V444.54h.11c.9,1.1,2.76,3.12,8,3.12,8.39,0,11.9-5.33,11.9-10.88,0-7-5.53-10.42-11.74-10.42-5,0-7.06,1.86-8.45,3.46h-.11v-2.93" fill="#fff"/><path d="M187,439.86c0,2.47-3.35,4-6.64,4-1.44,0-3.45-.57-3.45-2.43,0-2.21,2.28-2.7,5-3,3.08-.34,4.31-.68,5-1.1Zm7.28-7.65c0-5-7.28-5.86-11.26-5.86-5.79,0-11.8.88-12.64,7.08h7.17c.21-1.18.85-2.82,4.57-2.82,1.91,0,4.89.12,4.89,2.36,0,1.14-1.43,1.48-2.6,1.6l-6.69.72c-4.73.49-8.24,2.51-8.24,6.47,0,4.18,4.36,5.9,8.61,5.9a13.62,13.62,0,0,0,9.14-2.93,6.66,6.66,0,0,0,.69,2.4h8v-.8c-.9-.23-1.65-.76-1.65-3.16v-11" fill="#fff"/><path d="M207,437.16c0-3.19,1.59-6.2,6.32-6.2,5.1,0,6.38,3.27,6.38,6.5,0,3-1.86,5.82-6.59,5.82S207,439.56,207,437.16Zm19.82-17.34h-7.44v9.7h-.11c-1.17-1.29-3.4-3.16-8.18-3.16-6.21,0-11.74,3.43-11.74,10.42,0,5.56,3.5,10.88,11.9,10.88,3.08,0,6.38-.8,8.18-3.08h.11v2.55h7.28V419.82" fill="#fff"/><path d="M241.06,426.89v20.23h-7.44V426.89Zm0-2.4h-7.44v-4.94h7.44v4.94" fill="#fff"/><rect x="248.13" y="441.57" width="7.97" height="5.55" fill="#fff"/><path d="M287.29,439.75c-.26,2.09-2.55,7.91-12.91,7.91-10.62,0-13.07-5.82-13.07-10.08,0-6.54,4-11.22,13.55-11.22,4.46,0,11.8,1.45,12.48,7.76H279.8c-.32-1.33-1.49-3.42-4.94-3.27-4.68,0-5.9,3.35-5.9,5.86,0,2.2.1,6.58,5.74,6.58,3.77,0,5-2.59,5-3.54h7.54" fill="#fff"/><path d="M312.1,437c0,2.59-1.06,6.16-6.8,6.16s-6.8-3.58-6.8-6.16,1.06-6.16,6.8-6.16S312.1,434.42,312.1,437Zm7.65,0c0-7.3-6.85-10.65-14.45-10.65s-14.45,3.35-14.45,10.65,6.85,10.65,14.45,10.65,14.45-3.35,14.45-10.65" fill="#fff"/><path d="M365.39,447.12H358V434.84c0-3-1.86-4-4-4-3.72,0-5,1.75-5,4.15v12.13h-7.44V435c0-1.71,0-4.11-4.46-4.11-3.51,0-4.62,1.75-4.62,4v12.32h-7.44V426.89H332v3h.11c1-1.33,3-3.5,8-3.5,4.09,0,6,1.07,7.86,3.24a9.54,9.54,0,0,1,7.55-3.24c5.52,0,9.83,2.32,9.83,6.77v14" fill="#fff"/></svg>