<svg xmlns="http://www.w3.org/2000/svg" width="506.56" height="506.56" viewBox="0 0 506.56 506.56"><defs><style>.a{fill:#fff;}</style></defs><title>phone</title><rect width="506.56" height="506.56" rx="200" ry="200"/><path class="a" d="M326.3,385.5c-9.7.3-18.9-1.9-28.2-4.5-62.3-17.8-108.9-56.6-146.5-108-14.2-19.3-27.3-39.3-31.7-63.4-5.2-28.7,3.1-53.2,24.5-73,6.8-6.4,27.7-9.1,36-5a13.07,13.07,0,0,1,6.3,7.2c7.9,18.6,15.6,37.1,23.3,55.8,1.5,3.5.8,7.1-.8,10.7-3.9,8.6-10.3,15.5-16.7,22.3-4.9,5.1-5.1,9.7-1.5,15.6,22,36.5,52.4,63.2,92.1,79.1,5.9,2.4,10.4,1.6,14.4-3.4,6.6-8.3,13.7-16.3,19.9-24.9,4.3-5.9,9.2-6.8,15.2-4.1,13.2,6.1,26.3,12.3,39.4,18.5,3,1.4,5.9,2.9,8.8,4.2,13.4,6.6,13.2,6.7,12,21.4-2.2,28.8-23.8,42.9-49.3,50C338.1,385.6,332.2,385.7,326.3,385.5Z" transform="translate(-2 -2)"/><path class="a" d="M351.1,163.6c10.5,9.3,17.9,21,23.9,33.6a119.83,119.83,0,0,1,9.7,31.5c.4,2.2,1.4,4.7-.8,6.6-6,.4-11.9.6-17.9,1.3-2.3.3-3-.4-3.3-2.7a94,94,0,0,0-25.3-53.6c-20.6-21.9-46.1-32.6-76.3-31.7-.8,0-1.5,0-3.9.1-.2-6.8-.3-13.5-.5-20.3,1.3-2.3,3.7-1.9,5.7-1.9a116.42,116.42,0,0,1,36.6,5,114,114,0,0,1,27.7,12.2,58.5,58.5,0,0,1,7.5,5.6c2,1.6,5.9,5,7.9,6.6C344.4,157.8,348.9,161.6,351.1,163.6Z" transform="translate(-2 -2)"/><path class="a" d="M322,180.5a87.31,87.31,0,0,1,30,54c.4,2.6-.2,3.5-2.9,3.6-5.3.2-10.6.7-15.9,1.3-1.6.2-2.2-.1-2.5-2-2.8-18.9-12.2-33.9-27.8-44.8A62.06,62.06,0,0,0,264.2,181c-2.3.1-3-.4-3.1-2.8-.3-5.4-.8-10.8-1.4-16.2-.2-1.9.3-2.4,2.2-2.4C284.5,159,304.4,166,322,180.5Z" transform="translate(-2 -2)"/><path class="a" d="M299.7,242.1c-2.4-17.6-15.9-29.8-33.3-30-1.6,0-2.3-.2-2.5-2-.4-5.4-.9-10.8-1.4-16.1-.2-1.7.1-2.1,1.8-2.2,26.2-1.8,52.9,20.7,55.6,46.9.2,1.6-.4,1.8-1.7,1.9C312.1,241,306,241.5,299.7,242.1Z" transform="translate(-2 -2)"/></svg>