<svg xmlns="http://www.w3.org/2000/svg" width="506.56" height="506.56" viewBox="0 0 506.56 506.56"><title>pickup_car_bigl</title><rect width="506.56" height="506.56" rx="200" ry="200"/><path d="M397.1,332.17v-59a26.54,26.54,0,0,0-21.2-26V119.5A26.53,26.53,0,0,0,349.4,93H158.6a26.53,26.53,0,0,0-26.5,26.5V247.23a26.54,26.54,0,0,0-21.2,26v59a21.2,21.2,0,0,0,5.3,41.73H391.8a21.2,21.2,0,0,0,5.3-41.73ZM158.6,130.1a10.6,10.6,0,0,1,10.6-10.6H338.8a10.6,10.6,0,0,1,10.6,10.6v90.1a10.6,10.6,0,0,1-10.6,10.6H169.2a10.6,10.6,0,0,1-10.6-10.6ZM375.9,271.88v45.05a4,4,0,0,1-4,4H337.47a4,4,0,0,1-4-4V271.88a4,4,0,0,1,4-4h34.45A4,4,0,0,1,375.9,271.88ZM307,299.7H201a5.3,5.3,0,1,1,0-10.6H307a5.3,5.3,0,1,1,0,10.6Zm5.3,15.9a5.3,5.3,0,0,1-5.3,5.3H201a5.3,5.3,0,0,1,0-10.6H307A5.3,5.3,0,0,1,312.3,315.6ZM307,278.5H201a5.3,5.3,0,0,1,0-10.6H307a5.3,5.3,0,0,1,0,10.6Zm-174.9-6.62a4,4,0,0,1,4-4h34.45a4,4,0,0,1,4,4v45.05a4,4,0,0,1-4,4H136.07a4,4,0,0,1-4-4Zm53,117.93v5.3A15.92,15.92,0,0,1,169.2,411H137.4a15.92,15.92,0,0,1-15.9-15.9v-5.3a5.3,5.3,0,0,1,5.3-5.3h53A5.3,5.3,0,0,1,185.1,389.8Zm201.4,0v5.3A15.92,15.92,0,0,1,370.6,411H338.8a15.92,15.92,0,0,1-15.9-15.9v-5.3a5.3,5.3,0,0,1,5.3-5.3h53A5.3,5.3,0,0,1,386.5,389.8Zm0-169.6V156.6a5.3,5.3,0,0,1,5.3-5.3,15.92,15.92,0,0,1,15.9,15.9v42.4a15.92,15.92,0,0,1-15.9,15.9A5.3,5.3,0,0,1,386.5,220.2ZM100.3,209.6V167.2a15.92,15.92,0,0,1,15.9-15.9,5.3,5.3,0,0,1,5.3,5.3v63.6a5.3,5.3,0,0,1-5.3,5.3A15.92,15.92,0,0,1,100.3,209.6Z" fill="#fff"/></svg>