<svg xmlns="http://www.w3.org/2000/svg" width="506.56" height="506.56" viewBox="0 0 506.56 506.56"><title>pickup_car_small</title><rect width="506.56" height="506.56" rx="200" ry="200"/><path d="M405.57,226.07l-28-80.06a54.55,54.55,0,0,0-51.43-36.48H179.87A54.53,54.53,0,0,0,128.46,146l-28,80.06A54.53,54.53,0,0,0,76,271.62v96.61a27.23,27.23,0,1,0,54.46,0V351.06s71.9,3.55,122.54,3.55,122.54-3.55,122.54-3.55v17.17a27.23,27.23,0,1,0,54.46,0V271.62A54.54,54.54,0,0,0,405.57,226.07Zm-267-26.5L154.17,155a27.24,27.24,0,0,1,25.71-18.23H326.13A27.24,27.24,0,0,1,351.83,155l15.6,44.58a9.74,9.74,0,0,1-10.73,12.89c-26.7-4.32-61-7.62-103.71-7.62s-77,3.31-103.71,7.62A9.74,9.74,0,0,1,138.56,199.58Zm-1.29,100.58a20.42,20.42,0,1,1,20.42-20.42A20.43,20.43,0,0,1,137.27,300.15Zm156.58-13.62H212.15a13.62,13.62,0,1,1,0-27.23h81.69a13.62,13.62,0,1,1,0,27.23Zm74.88,13.62a20.42,20.42,0,1,1,20.42-20.42A20.43,20.43,0,0,1,368.73,300.15Z" fill="#fff"/></svg>