<svg xmlns="http://www.w3.org/2000/svg" width="1792" height="1601.02" viewBox="0 0 1792 1601.02"><title>reply_bullet</title><path d="M1152,645V575q0-42,39-59a69.54,69.54,0,0,1,25-5q27,0,45,19l512,512q19,19,19,45t-19,45l-512,512q-29,31-70,14-39-17-39-59v-69l397-398q19-19,19-45t-19-45ZM0,607q0-58,17-133.5t38.5-138q21.5-62.5,48-125T144,120l20-40q8-17,28-17a30.34,30.34,0,0,1,9,1q25,8,23,34Q181,498,330,663q64,71,170.5,110.5T768,826V575q0-42,39-59a69.54,69.54,0,0,1,25-5q27,0,45,19l512,512q19,19,19,45t-19,45L877,1644q-29,31-70,14-39-17-39-59V1337q-411-28-599-221Q0,943,0,607Z" transform="translate(0 -62.98)"/></svg>