<svg xmlns="http://www.w3.org/2000/svg" width="506.56" height="506.56" viewBox="0 0 506.56 506.56"><title>rescue</title><rect width="506.56" height="506.56" rx="200" ry="200"/><path d="M429.24,317a18.92,18.92,0,0,0,4.43-1.46,18.19,18.19,0,0,0,10-13.88,374,374,0,0,0,0-99.43,18.19,18.19,0,0,0-10-13.88,19.4,19.4,0,0,0-4.49-1.46A189.34,189.34,0,0,0,318.05,75.75a18.92,18.92,0,0,0-1.46-4.43,18.19,18.19,0,0,0-13.88-10,374,374,0,0,0-99.43,0,18.19,18.19,0,0,0-13.88,10,18.92,18.92,0,0,0-1.46,4.43A189.34,189.34,0,0,0,76.82,186.94a19.4,19.4,0,0,0-4.49,1.46,18.19,18.19,0,0,0-10,13.88,374,374,0,0,0,0,99.43,18.19,18.19,0,0,0,10,13.88A18.92,18.92,0,0,0,76.76,317,189.28,189.28,0,0,0,187.95,428.24a18.92,18.92,0,0,0,1.46,4.43,18.19,18.19,0,0,0,13.88,10,372.25,372.25,0,0,0,99.43,0,18.19,18.19,0,0,0,13.88-10,18.92,18.92,0,0,0,1.46-4.43A189.28,189.28,0,0,0,429.24,317Zm2.43-17a6.2,6.2,0,0,1-6.24,5.27h0a5.52,5.52,0,0,1-2.67-.79h0l-48.5-28.31h-.42A6.67,6.67,0,0,1,372.5,275h0a5.09,5.09,0,0,1-.85-1.46v-.61a3.94,3.94,0,0,1,0-1.21,3.82,3.82,0,0,1,0-1.82,56.26,56.26,0,0,0,0-35,4.85,4.85,0,0,1,0-1.88,5.46,5.46,0,0,1,0-1,3,3,0,0,1,0-.79,5.09,5.09,0,0,1,.85-1.46h0a6.49,6.49,0,0,1,1.33-1.21l.42-.79,48.5-28.19h0a6.55,6.55,0,0,1,2.73-.79h.36a6.21,6.21,0,0,1,6,5.27A364.67,364.67,0,0,1,431.67,300.07Zm-67.9-16.91a114.52,114.52,0,0,1-79.6,79.6h0a18.19,18.19,0,0,0-3.58-2.49H280a17,17,0,0,0-3.82-1.39h0a17.76,17.76,0,0,0-4.06-.42h-.91a19.1,19.1,0,0,0-4.06.73,43.17,43.17,0,0,1-27.65,0,19,19,0,0,0-4.12-.73h-1a17.58,17.58,0,0,0-4,.42h0a16.49,16.49,0,0,0-3.76,1.39H226a18.19,18.19,0,0,0-3.58,2.49h0a114.52,114.52,0,0,1-80.21-79.6h0a18.19,18.19,0,0,0,2.49-3.58V279a17.58,17.58,0,0,0,1.39-3.76h0a19,19,0,0,0,.42-4.12v-.91a19,19,0,0,0-.73-4.12,44,44,0,0,1,0-27.65,19,19,0,0,0,.73-4.12v-1a17.58,17.58,0,0,0-.42-4,1.46,1.46,0,0,0,0-.49,15.94,15.94,0,0,0-1.33-3.58v-.67a20.43,20.43,0,0,0-2.49-3.52h0a114.65,114.65,0,0,1,79.54-79.85h0a17,17,0,0,0,3.64,2.55H226a23.7,23.7,0,0,0,3.94,1.46h0a18.67,18.67,0,0,0,4.12.42h.79a19,19,0,0,0,4.12-.73,43.17,43.17,0,0,1,27.65,0,15.28,15.28,0,0,0,2.79.61h2.73a14.91,14.91,0,0,0,3.64-.42h.79a23,23,0,0,0,2.85-1.09h.91a15.7,15.7,0,0,0,3-2.24h0a114.65,114.65,0,0,1,80.51,78.94h0a20.43,20.43,0,0,0-2.49,3.52v.67a16,16,0,0,0-1.33,3.58,1.46,1.46,0,0,0,0,.49,17.58,17.58,0,0,0-.42,4v1a19,19,0,0,0,.73,4.12,50.69,50.69,0,0,1,1.7,7,43.89,43.89,0,0,1-1.7,20.67h0a18.55,18.55,0,0,0-.73,4v1a17.76,17.76,0,0,0,.42,4.06h0a17.58,17.58,0,0,0,1.39,3.76v.61a18.19,18.19,0,0,0,2.49,3.58ZM417,188.7l-.55.3L374,213.62a126.65,126.65,0,0,0-82.63-82.88L316,88.3h0v-.55A177.33,177.33,0,0,1,417,188.7ZM204.8,73.51a364.67,364.67,0,0,1,96.15,0,6.2,6.2,0,0,1,5.27,6.24h0a6.06,6.06,0,0,1-.79,2.73l-28.19,48.26-.36.42a5.15,5.15,0,0,1-1.21,1.33h0a4.37,4.37,0,0,1-1.64.91h0a4.55,4.55,0,0,1-1.58.3,4.67,4.67,0,0,1-1.82,0,55.29,55.29,0,0,0-35,0,4.67,4.67,0,0,1-1.82,0,5.15,5.15,0,0,1-1.39,0H232a6.06,6.06,0,0,1-1.46-.85h0a6.06,6.06,0,0,1-1.21-1.33l-.55-.79L200.5,82.24h0a5.52,5.52,0,0,1-.79-2.67h0a6.22,6.22,0,0,1,5.21-6.24Zm-15.1,14.43a5.64,5.64,0,0,1,.3.61L214.62,131a126.65,126.65,0,0,0-82.88,82.63L89.31,189v-.3A177.33,177.33,0,0,1,189.71,87.94Zm-115.19,116a6.21,6.21,0,0,1,6-5.27h.36a6.55,6.55,0,0,1,2.73.79l48.14,28.31.36.3a6.49,6.49,0,0,1,1.33,1.21h0a5.09,5.09,0,0,1,.85,1.46,3,3,0,0,1,0,.79,5.46,5.46,0,0,1,0,1,3.94,3.94,0,0,1,0,1.88c-.42,1.46-.85,2.91-1.21,4.37a56.26,56.26,0,0,0,1.21,30.68v.67a3.76,3.76,0,0,1,0,1.15,4.73,4.73,0,0,1,0,1.33V273a6.06,6.06,0,0,1-.85,1.46h0a6.67,6.67,0,0,1-1.33,1.27h-.42L83.24,304.5h0a5.52,5.52,0,0,1-2.67.79h0A6.2,6.2,0,0,1,74.33,300a364.67,364.67,0,0,1,0-96.09ZM88.94,315.29h.61L132,290.67a126.41,126.41,0,0,0,82.63,82.57L190,415.69h0l-.3.55A177.58,177.58,0,0,1,88.94,315.29ZM301.14,430.48a364.67,364.67,0,0,1-96.15,0,6.2,6.2,0,0,1-5.27-6.24h0a6.06,6.06,0,0,1,.79-2.73l28.25-48.26.42-.49a4.24,4.24,0,0,1,1.09-1.21h.36a5.34,5.34,0,0,1,1.27-.73,3.21,3.21,0,0,1,.73,0h1.09a4.67,4.67,0,0,1,1.82,0,55.84,55.84,0,0,0,35,0,4.67,4.67,0,0,1,1.82,0,4.3,4.3,0,0,1,1.21,0h.61a6.06,6.06,0,0,1,1.39.79h0a8.31,8.31,0,0,1,1.15,1.33l.49.3,28.19,48.5h0a5.52,5.52,0,0,1,.79,2.67h0a6.24,6.24,0,0,1-5.15,6.24Zm15.22-14.61a5.64,5.64,0,0,1,0-.61l-24.61-42.44a126.41,126.41,0,0,0,82.51-82.45L416.69,315h.55A177.58,177.58,0,0,1,316.29,416.05Z" fill="#fff"/><path d="M156,123.16a3,3,0,0,0,1.82-.61,155.93,155.93,0,0,1,17.82-11.4,3,3,0,1,0-2.91-5.34,165.88,165.88,0,0,0-18.55,12.13,3,3,0,0,0-.61,4.24A3.09,3.09,0,0,0,156,123.16Z" fill="#fff"/><path d="M119.62,160.08a3,3,0,0,0,2.49-1.27,162.9,162.9,0,0,1,23-25.83,3,3,0,0,0,0-4.29l0,0a3,3,0,0,0-4.2,0l0,0A169.76,169.76,0,0,0,117,155.48a3.09,3.09,0,0,0,.73,4.24A3.15,3.15,0,0,0,119.62,160.08Z" fill="#fff"/><path d="M249.56,279.25h11.77V261.61h-41.2v17.64H231.9a47.1,47.1,0,0,0,94.17,0v-100H308.41v100.1a29.43,29.43,0,0,1-58.85,0h0Zm64.74,0a35.31,35.31,0,0,1-70.63,0v-5.9h11.77V267.5H226v5.89h11.75v5.87A41.19,41.19,0,0,0,279,320.47h0a41.2,41.2,0,0,0,41.2-41.18V214.53H314.3v64.76Zm0-70.66V185.1h5.89v23.54ZM178.93,223.36v2.91a29.41,29.41,0,0,0,29.38,29.43h5.91a12.62,12.62,0,0,0,9.3-4.86L234,235.91c3.72-5.34,9.78-5.29,13.47,0l10.42,14.93a12.58,12.58,0,0,0,9.3,4.86h5.91a29.44,29.44,0,0,0,29.45-29.43v-2.91A32.39,32.39,0,0,0,270.22,191h-59A32.37,32.37,0,0,0,178.93,223.36Zm91.29-26.48a26.5,26.5,0,0,1,26.42,26.48v2.91a23.56,23.56,0,0,1-23.56,23.55h-5.91a6.93,6.93,0,0,1-4.48-2.34l-10.43-14.91c-6-8.66-17-8.67-23.11,0l-10.43,14.92a6.93,6.93,0,0,1-4.48,2.35h-5.9a23.52,23.52,0,0,1-23.51-23.54h0v-2.91a26.48,26.48,0,0,1,26.43-26.48Z" fill="#fff"/></svg>