<svg xmlns="http://www.w3.org/2000/svg" width="506.56" height="506.56" viewBox="0 0 506.56 506.56"><title>scuba_reminde</title><rect width="506.56" height="506.56" rx="200" ry="200"/><path d="M388,84.25H118a45.05,45.05,0,0,0-45,45v247.5a45.05,45.05,0,0,0,45,45H388a45.05,45.05,0,0,0,45-45V129.25A45.05,45.05,0,0,0,388,84.25Zm22.5,292.5a22.5,22.5,0,0,1-22.5,22.5H118a22.5,22.5,0,0,1-22.5-22.5V129.25a22.5,22.5,0,0,1,22.5-22.5H388a22.5,22.5,0,0,1,22.5,22.5Z" fill="#fff"/><path d="M320.5,140.5h-135a11.25,11.25,0,0,0,0,22.5h135a11.25,11.25,0,0,0,0-22.5Z" fill="#fff"/><circle cx="140.5" cy="151.75" r="11.25" fill="#fff"/><circle cx="365.5" cy="151.75" r="11.25" fill="#fff"/><path d="M250,310.51h13.06V290.94H217.36v19.57h13.06a52.27,52.27,0,0,0,104.5,0v-111H315.33V310.59a32.66,32.66,0,0,1-65.31-.05h0Zm71.85,0a39.19,39.19,0,0,1-78.38,0V304h13.06v-6.53H223.91V304h13v6.51a45.71,45.71,0,0,0,45.69,45.74h0a45.73,45.73,0,0,0,45.72-45.7V238.69h-6.51v71.87Zm0-78.42V206h6.53v26.13ZM171.64,248.48v3.23a32.64,32.64,0,0,0,32.61,32.66h6.56A14,14,0,0,0,221.13,279l11.6-16.57c4.13-5.93,10.85-5.87,14.94,0L259.24,279a14,14,0,0,0,10.33,5.39h6.56a32.67,32.67,0,0,0,32.68-32.66v-3.23a35.94,35.94,0,0,0-35.86-35.92H207.5A35.92,35.92,0,0,0,171.64,248.48Zm101.31-29.39a29.41,29.41,0,0,1,29.32,29.39v3.23a26.14,26.14,0,0,1-26.15,26.13h-6.56a7.7,7.7,0,0,1-5-2.6L253,258.71c-6.7-9.61-18.92-9.62-25.65,0l-11.58,16.56a7.69,7.69,0,0,1-5,2.61h-6.55a26.1,26.1,0,0,1-26.09-26.12h0v-3.23a29.39,29.39,0,0,1,29.33-29.39Z" fill="#fff"/></svg>