<svg xmlns="http://www.w3.org/2000/svg" width="506.56" height="506.56" viewBox="0 0 506.56 506.56"><title>scuba</title><rect width="506.56" height="506.56" rx="200" ry="200"/><path d="M98.85,137.56H85.7A17.56,17.56,0,0,1,68.16,120v-8.77A26.34,26.34,0,0,1,94.47,84.94H116.4a4.38,4.38,0,0,1,4.39,4.39v26.31A22,22,0,0,1,98.85,137.56ZM94.47,93.71a17.56,17.56,0,0,0-17.54,17.54V120a8.78,8.78,0,0,0,8.77,8.77H98.85A13.17,13.17,0,0,0,112,115.64V93.71Z" fill="#fff"/><path d="M147.09,137.56H133.94A22,22,0,0,1,112,115.64V89.32a4.38,4.38,0,0,1,4.39-4.39h21.93a26.34,26.34,0,0,1,26.31,26.31V120A17.56,17.56,0,0,1,147.09,137.56ZM120.78,93.71v21.93a13.17,13.17,0,0,0,13.16,13.16h13.16a8.78,8.78,0,0,0,8.77-8.77v-8.77a17.56,17.56,0,0,0-17.54-17.54Z" fill="#fff"/><path d="M68.16,120a4.38,4.38,0,0,1-4.39-4.39v-8.77a4.39,4.39,0,0,1,8.77,0v8.77A4.38,4.38,0,0,1,68.16,120Z" fill="#fff"/><path d="M164.64,120a4.38,4.38,0,0,1-4.39-4.39v-8.77a4.39,4.39,0,0,1,8.77,0v8.77A4.38,4.38,0,0,1,164.64,120Z" fill="#fff"/><path d="M116.4,181.42a17.54,17.54,0,1,1,17.54-17.54A17.56,17.56,0,0,1,116.4,181.42Zm0-26.31a8.77,8.77,0,1,0,8.77,8.77A8.78,8.78,0,0,0,116.4,155.1Z" fill="#fff"/><path d="M256.73,295.44H230.42a17.56,17.56,0,0,1-17.54-17.54V194.57a30.7,30.7,0,1,1,61.4,0V277.9A17.56,17.56,0,0,1,256.73,295.44ZM243.57,172.65a22,22,0,0,0-21.93,21.93V277.9a8.78,8.78,0,0,0,8.77,8.77h26.31a8.78,8.78,0,0,0,8.77-8.77V194.57A22,22,0,0,0,243.57,172.65Z" fill="#fff"/><path d="M252.34,172.65H234.8a4.38,4.38,0,0,1-4.39-4.39V150.72a4.38,4.38,0,0,1,4.39-4.39h17.54a4.38,4.38,0,0,1,4.39,4.39v17.54A4.38,4.38,0,0,1,252.34,172.65Zm-13.16-8.77H248V155.1h-8.77Z" fill="#fff"/><path d="M269.89,277.9H217.26a4.39,4.39,0,0,1,0-8.77h52.63a4.39,4.39,0,0,1,0,8.77Z" fill="#fff"/><path d="M269.89,199H217.26a4.39,4.39,0,0,1,0-8.77h52.63a4.39,4.39,0,0,1,0,8.77Z" fill="#fff"/><path d="M127.36,295.44a63.66,63.66,0,0,1-63.59-63.59V199a39.51,39.51,0,0,1,39.47-39.47,4.39,4.39,0,0,1,0,8.77A30.74,30.74,0,0,0,72.54,199v32.89a54.82,54.82,0,0,0,109.64,0V157.3a28.54,28.54,0,0,1,28.51-28.51H226A22,22,0,0,1,248,150.72a4.39,4.39,0,1,1-8.77,0A13.17,13.17,0,0,0,226,137.56H210.68a19.76,19.76,0,0,0-19.73,19.73v74.55A63.66,63.66,0,0,1,127.36,295.44Z" fill="#fff"/><path d="M359.15,279.87a28,28,0,0,0,35.1-18.29l8.86-28.14a28,28,0,1,0-53.39-16.82l-8.86,28.14A28,28,0,0,0,359.15,279.87ZM357.2,219a20.15,20.15,0,1,1,38.44,12.11l-8.86,28.14a20.15,20.15,0,1,1-38.44-12.11Z" fill="#fff"/><path d="M412.88,283.31l15-47.61a52.28,52.28,0,1,0-99.73-31.42l-15,47.61c-38.13,33.42-47.35,65.34-47.68,66.57l-18.27,58A54.68,54.68,0,0,0,282.87,445L327,458.89a54.68,54.68,0,0,0,68.5-35.69l18.23-57.88C414.22,364,425,332.55,412.88,283.31Zm-77.26-76.67a44.45,44.45,0,1,1,84.78,26.71L402.59,289.9a44.45,44.45,0,0,1-84.78-26.71Zm70.71,156.2-18.27,58a46.84,46.84,0,0,1-58.68,30.57l-44.15-13.91a46.84,46.84,0,0,1-30.57-58.68L273,320.69c.08-.28,7.41-25.56,35.91-54.05a52.25,52.25,0,0,0,99,31.2C414.9,337.38,406.46,362.45,406.33,362.84Z" fill="#fff"/><path d="M299.63,315.18a3.92,3.92,0,1,0-3.12,7.18c.23.1,23.31,10.62,11.69,47.49L295.4,410.52a3.92,3.92,0,0,0,7.47,2.35l12.81-40.66C329.39,328.69,299.93,315.31,299.63,315.18Z" fill="#fff"/><path d="M387.68,342.92c-.32-.06-32.12-6-45.83,37.54L329,421.11a3.92,3.92,0,0,0,7.47,2.35l12.81-40.66c11.5-36.51,35.72-32.42,36.82-32.21a3.92,3.92,0,0,0,1.54-7.68Z" fill="#fff"/></svg>