<svg xmlns="http://www.w3.org/2000/svg" width="58.49" height="57.03" viewBox="0 0 58.49 57.03"><title>search_reset</title><path d="M29.38,39.62A10.25,10.25,0,1,1,39.63,29.37,10.27,10.27,0,0,1,29.38,39.62Zm0-17.92A7.67,7.67,0,1,0,37,29.37,7.67,7.67,0,0,0,29.38,21.71Z" transform="translate(-1.76 -2.48)"/><path d="M34,30.67a1.29,1.29,0,0,1-1.29-1.29A3.37,3.37,0,0,0,29.38,26a1.29,1.29,0,0,1,0-2.59,6,6,0,0,1,6,6A1.29,1.29,0,0,1,34,30.67Z" transform="translate(-1.76 -2.48)"/><path d="M40.9,44.88a4,4,0,0,1-2.81-1.16l-5.49-5.49a1.29,1.29,0,0,1,.32-2.06,7.64,7.64,0,0,0,3.24-3.24,1.29,1.29,0,0,1,2.06-.31l5.48,5.48a4,4,0,0,1-2.81,6.78Zm-5.33-7.34,4.35,4.35a1.38,1.38,0,0,0,2-2l-4.35-4.35A10.18,10.18,0,0,1,35.58,37.54Z" transform="translate(-1.76 -2.48)"/><path d="M31.7,2.48a28,28,0,0,0-21.33,9.87L6.5,8.9A2.85,2.85,0,0,0,1.76,11V22.44a2.85,2.85,0,0,0,2.85,2.85H17.45a2.85,2.85,0,0,0,1.88-5l-4.7-4.19A22.41,22.41,0,0,1,31.73,8.19a22.81,22.81,0,1,1-21.5,30.42,2.85,2.85,0,0,0-5.39,1.88,28.51,28.51,0,1,0,26.86-38Z" transform="translate(-1.76 -2.48)"/></svg>