<svg xmlns="http://www.w3.org/2000/svg" width="54.99" height="55.03" viewBox="0 0 54.99 55.03"><title>search</title><path d="M21.9,43.81a21.9,21.9,0,1,1,21.9-21.9h0A21.93,21.93,0,0,1,21.9,43.81Zm0-38.29A16.37,16.37,0,1,0,38.27,21.9,16.37,16.37,0,0,0,21.9,5.52Z" transform="translate(0 -0.01)"/><path d="M31.86,24.67a2.77,2.77,0,0,1-2.76-2.76,7.19,7.19,0,0,0-7.19-7.19h0a2.77,2.77,0,1,1,0-5.53h0A12.72,12.72,0,0,1,34.63,21.9a2.77,2.77,0,0,1-2.77,2.77Z" transform="translate(0 -0.01)"/><path d="M46.5,55a8.43,8.43,0,0,1-6-2.52L28.8,40.83a2.76,2.76,0,0,1,.7-4.41,16.32,16.32,0,0,0,6.9-6.9,2.77,2.77,0,0,1,4.4-.67L52.5,40.52A8.48,8.48,0,0,1,46.5,55ZM35.14,39.36l9.29,9.29a3,3,0,1,0,4.18-4.18l-9.28-9.28A21.74,21.74,0,0,1,35.14,39.36Z" transform="translate(0 -0.01)"/></svg>