<svg xmlns="http://www.w3.org/2000/svg" width="55" height="55.04" viewBox="0 0 55 55.04"><title>search_down</title><path d="M26.4,48.29a21.9,21.9,0,1,1,21.9-21.9A21.93,21.93,0,0,1,26.4,48.29ZM26.4,10A16.37,16.37,0,1,0,42.77,26.38,16.39,16.39,0,0,0,26.4,10Z" transform="translate(-4.5 -4.48)"/><path d="M36.36,29.15a2.77,2.77,0,0,1-2.76-2.76,7.19,7.19,0,0,0-7.19-7.19,2.76,2.76,0,0,1,0-5.53A12.72,12.72,0,0,1,39.13,26.38,2.77,2.77,0,0,1,36.36,29.15Z" transform="translate(-4.5 -4.48)"/><path d="M51,59.52A8.43,8.43,0,0,1,45,57L33.3,45.31A2.76,2.76,0,0,1,34,40.9,16.32,16.32,0,0,0,40.9,34a2.77,2.77,0,0,1,4.4-.67L57,45a8.48,8.48,0,0,1-6,14.48ZM39.64,43.84l9.29,9.29a3,3,0,1,0,4.18-4.18l-9.28-9.28A21.74,21.74,0,0,1,39.64,43.84Z" transform="translate(-4.5 -4.48)"/><path d="M21.51,35.9,14.6,29a1.63,1.63,0,0,1,0-2.3l.58-.58a1.63,1.63,0,0,1,2.3,0l5.27,5.27L28,26.11a1.63,1.63,0,0,1,2.3,0l.58.58a1.63,1.63,0,0,1,0,2.3L24,35.9a1.89,1.89,0,0,1-2.48,0Z" transform="translate(-4.5 -4.48)"/></svg>