<svg xmlns="http://www.w3.org/2000/svg" width="50" height="50" viewBox="0 0 50 50"><defs><style>.a,.b,.d{fill:none;}.b,.d{stroke:#4e8cc7;stroke-linecap:round;stroke-linejoin:round;}.b{stroke-width:2px;}.c{fill:#4e8cc7;}.d{stroke-width:2px;}</style></defs><title>ship</title><rect class="a" width="50" height="50"/><path class="b" d="M49,44.65a5.46,5.46,0,0,1-1.85.3,9.5,9.5,0,0,1-5.54-1.71,9.82,9.82,0,0,1-11.08,0,9.82,9.82,0,0,1-11.08,0,9.5,9.5,0,0,1-5.54,1.71,9.5,9.5,0,0,1-5.54-1.71,9.5,9.5,0,0,1-5.54,1.71A12,12,0,0,1,1,44.8" transform="translate(0)"/><path class="b" d="M49,48.65a5.46,5.46,0,0,1-1.85.3,9.5,9.5,0,0,1-5.54-1.71,9.82,9.82,0,0,1-11.08,0,9.82,9.82,0,0,1-11.08,0,9.5,9.5,0,0,1-5.54,1.71,9.5,9.5,0,0,1-5.54-1.71,9.5,9.5,0,0,1-5.54,1.71A12,12,0,0,1,1,48.8" transform="translate(0)"/><path class="c" d="M44,31a.94.94,0,0,1-.92,1h-2S40,31.94,40,31V29.72s0-.39.65-.39.68.39.68.39v.8s.06.39.65.39.68-.39.68-.39v-.8s.06-.39.68-.39.65.39.65.39Z" transform="translate(0)"/><polyline class="b" points="38.77 25.88 30 16 22 16 20 22 15 22 10 16 6 16 8 21 4.61 26.06"/><line class="b" x1="6.25" y1="27" x2="36.38" y2="27"/><path class="d" d="M32.64,44.33a21.27,21.27,0,0,0,16.29-15.9,1.87,1.87,0,0,0-.23-1.59A2.56,2.56,0,0,0,47,26H38l-4,6H7L5,26H3a2.12,2.12,0,0,0-2,2v5.54A11.4,11.4,0,0,0,7.13,43.65" transform="translate(0)"/><line class="b" x1="7.83" y1="22" x2="35.04" y2="22"/></svg>