<svg xmlns="http://www.w3.org/2000/svg" width="506.56" height="506.56" viewBox="0 0 506.56 506.56"><title>single</title><rect width="506.56" height="506.56" rx="200" ry="200"/><path d="M252,270.17A81,81,0,1,0,170.88,189,81.13,81.13,0,0,0,252,270.17Zm0-140.84A59.72,59.72,0,1,1,192.28,189,59.89,59.89,0,0,1,252,129.33Z" fill="#fff"/><path d="M111.66,396.82H393.34a10.62,10.62,0,0,0,10.7-10.7A101.89,101.89,0,0,0,302.27,284.35H202.73A101.89,101.89,0,0,0,101,386.12,10.62,10.62,0,0,0,111.66,396.82Zm91.07-91.07h99.53a80.32,80.32,0,0,1,79.63,69.67H123.11A80.53,80.53,0,0,1,202.73,305.75Z" fill="#fff"/></svg>