<svg xmlns="http://www.w3.org/2000/svg" width="506.56" height="506.56" viewBox="0 0 506.56 506.56"><title>single_edu</title><rect width="506.56" height="506.56" rx="200" ry="200"/><path d="M357.2,322a49.44,49.44,0,1,0-49.51-49.54A49.44,49.44,0,0,0,357.2,322Zm0-86a36.45,36.45,0,1,1-36.45,36.45v0A36.55,36.55,0,0,1,357.2,236Z" fill="#fff"/><path d="M271.55,399.28H443.47a6.48,6.48,0,0,0,6.53-6.43s0-.07,0-.1a62.19,62.19,0,0,0-62.12-62.12H327.13A62.19,62.19,0,0,0,265,392.75a6.48,6.48,0,0,0,6.43,6.53Zm55.59-55.59h60.75a49,49,0,0,1,48.6,42.52H278.53a49.15,49.15,0,0,1,48.6-42.52Z" fill="#fff"/><path d="M296.83,132V305.56a8.26,8.26,0,0,1-8.26,8.26h-12.4a4.13,4.13,0,0,1-4.13-4.13V293.75a4.13,4.13,0,0,1,1.25-3,37.2,37.2,0,0,0,1.85-51.16q-.89-1-1.84-1.93a4.14,4.14,0,0,1-1.26-3V181.59A33.06,33.06,0,0,1,239,148.53H115A33.06,33.06,0,0,1,82,181.59V256A33.06,33.06,0,0,1,115,289H217.75a4.15,4.15,0,0,1,3,1.26l.49.49a4.15,4.15,0,0,1,1.25,3v16a4.13,4.13,0,0,1-4.13,4.13H65.43a8.26,8.26,0,0,1-8.26-8.26V132a8.26,8.26,0,0,1,8.26-8.26H288.57A8.26,8.26,0,0,1,296.83,132ZM131.55,189.86h90.91a4.13,4.13,0,0,0,0-8.26H131.55a4.13,4.13,0,0,0,0,8.26Zm0,33.06h90.91a4.13,4.13,0,0,0,0-8.26H131.55a4.13,4.13,0,0,0,0,8.26Zm80,24.79H131.69a4.23,4.23,0,0,0-4.26,3.86,4.13,4.13,0,0,0,3.85,4.4h78.51a1.54,1.54,0,0,0,1.49-1.14,37,37,0,0,1,1.69-5,1.54,1.54,0,0,0-1.43-2.14Zm57.41-2.61a28.93,28.93,0,1,0-40.83,40.83c.37.33.71.61,1,.86a28.93,28.93,0,0,0,39.8-41.69Zm-21.69,56.32a37.28,37.28,0,0,1-14.39-2.9,1.55,1.55,0,0,0-2.14,1.43v34.91a4.13,4.13,0,0,0,6.26,3.54l8.15-4.89a4.13,4.13,0,0,1,4.25,0l8.15,4.89a4.13,4.13,0,0,0,6.26-3.54V300a1.55,1.55,0,0,0-2.13-1.43A37.3,37.3,0,0,1,247.25,301.43Z" fill="#fff"/></svg>