<svg xmlns="http://www.w3.org/2000/svg" width="506.56" height="506.56" viewBox="0 0 506.56 506.56"><title>single_home</title><rect width="506.56" height="506.56" rx="200" ry="200"/><path d="M289.69,307.59a7.56,7.56,0,0,1-4.39-1.44L183.82,233.74,82.33,306.15a7.57,7.57,0,0,1-8.78-12.25l105.87-75.63a7.56,7.56,0,0,1,8.78,0l105.87,75.62a7.56,7.56,0,0,1-4.39,13.66Z" fill="#fff"/><path d="M100.63,262.22a7.57,7.57,0,0,1-7.56-7.54V224.4a7.57,7.57,0,0,1,7.56-7.56h30.25a7.57,7.57,0,1,1,.52,15.12H108.2v22.72A7.57,7.57,0,0,1,100.63,262.22Z" fill="#fff"/><path d="M251.88,413.47H214.07a7.57,7.57,0,0,1-7.56-7.56V353h-45.4v52.94a7.57,7.57,0,0,1-7.56,7.56H115.75a22.69,22.69,0,0,1-22.69-22.69V315.16a7.57,7.57,0,1,1,15.12-.52q0,.26,0,.52v75.62a7.57,7.57,0,0,0,7.56,7.56H146V345.41a7.57,7.57,0,0,1,7.56-7.56h60.5a7.57,7.57,0,0,1,7.56,7.56v52.94h30.25a7.57,7.57,0,0,0,7.54-7.56V315.16a7.57,7.57,0,0,1,15.12,0v75.62A22.69,22.69,0,0,1,251.88,413.47Z" fill="#fff"/><path d="M356.2,176a49.44,49.44,0,1,0-49.51-49.54A49.44,49.44,0,0,0,356.2,176Zm0-86a36.45,36.45,0,1,1-36.45,36.45v0A36.55,36.55,0,0,1,356.2,90Z" fill="#fff"/><path d="M270.55,253.28H442.47a6.48,6.48,0,0,0,6.53-6.43s0-.07,0-.1a62.19,62.19,0,0,0-62.12-62.12H326.13A62.19,62.19,0,0,0,264,246.75a6.48,6.48,0,0,0,6.43,6.53Zm55.59-55.59h60.75a49,49,0,0,1,48.6,42.52H277.53a49.15,49.15,0,0,1,48.6-42.52Z" fill="#fff"/></svg>