<svg xmlns="http://www.w3.org/2000/svg" width="506.56" height="506.56" viewBox="0 0 506.56 506.56"><title>special_dive</title><rect width="506.56" height="506.56" rx="200" ry="200"/><path d="M437.56,274.16a.93.93,0,0,0,.34,0c4.06-1.52,6.51-5.2,7-10.56a26.81,26.81,0,0,0-.46-7.52,1,1,0,0,0-.25-.51,5.08,5.08,0,0,0-2.54-1.06,21.38,21.38,0,0,1-2.66-.85l-.08,0c-.38-.13-.8-.34-1.31-.51l.13-.13c2-2.16,2.49-7.35,2.57-7.94a1.1,1.1,0,0,0-.33-.85.73.73,0,0,0-.17-.13c1.14-2,2.37-4.61,2.54-5a1,1,0,0,0-.42-1.35,1,1,0,0,0-1.35.3l-.3.3a14.77,14.77,0,0,0-.08-2.62,1,1,0,0,0-1-.89,1,1,0,0,0-.89.46c-2.37-5.7-6.76-6.38-8.66-6.38-.38,0-.68,0-.93,0-2-1.61-4.86-1.94-8.54-1.94-1.94,0-4.27.13-6.93.25h-.41a11.29,11.29,0,0,0-8.87,4.56,13.32,13.32,0,0,0-1.94,3.89c-5.54,4.52-5,12.64-4.35,16.82a22.81,22.81,0,0,0-4.48-2,52.68,52.68,0,0,0-3-12.64c-2.54-6.51-6.12-10.44-10.65-11.71a11.16,11.16,0,0,0-3.13-.42c-5.28,0-10.78,3.59-16.73,10.94a16.1,16.1,0,0,0-8.41-2c-6,0-14.07,2.24-24,6.63-24.81,10.94-78.18,25.23-81.56,26.12h-.42a9.83,9.83,0,0,0-7,2.66q-2.41,2.6-2.16,7.23c.55,9,4.39,18,7.48,24a77.5,77.5,0,0,0,6.76,10.9,1,1,0,0,0,1.23.34,152.77,152.77,0,0,1,17.54-6.13c-15,6.68-29.58,14.79-39.17,21.81-5.37,3.93-9.89,5.32-13.14,5.66a29.76,29.76,0,0,0,4.52-1.82,1,1,0,0,0,.55-.76,1,1,0,0,0-.25-.84c-4.86-5.28-24.38-16.44-35.41-20.24-8.75-3-21.89-7.86-26.33-9.51.55-1,.89-2.79.76-6.6-.21-6-8.62-6.63-14.92-6.63a147.21,147.21,0,0,0-15.21.93c-3.85.38-8.2.55-12.93.55-13.78,0-29.75-1.65-38.92-4.06a43.43,43.43,0,0,0-10.48-1.65c-4.1,0-6.09,1.23-7.48,2.41a5.7,5.7,0,0,0-1.61,5,7.13,7.13,0,0,0,3.85,5.62c2.2,1.14,3.89,3.21,6,5.79A75.34,75.34,0,0,0,74.14,308,16.71,16.71,0,0,0,86,312.45a25.26,25.26,0,0,0,3.47-.25,26.53,26.53,0,0,1,3.3-.13c1,0,2.07,0,3.25,0s2.62,0,4,0c2.2,0,3.85,0,5.24-.17,3.38-.25,8.41-1.1,13.27-1.9,2.66-.46,5.45-.93,7.82-1.27a34,34,0,0,1,4.23-.42,7.38,7.38,0,0,1,1.94.25,21.18,21.18,0,0,0,3.63.68c4.14.46,7.44,2.16,14.66,5.92,1.56.8,3.34,1.73,5.37,2.75,8.87,4.56,25.14,18.08,31,23-1.82.22-4.23.68-6.68,1.15-1.94.38-3.89.76-5.58,1a29.31,29.31,0,0,1-4.65.29,71.91,71.91,0,0,1-7.31-.42c.85-3.08.72-5.32-.38-6.85a5.08,5.08,0,0,0-4.27-1.82,12.2,12.2,0,0,0-2.62.34c-.89.21-19.1,4.35-28.65,6.46a34.6,34.6,0,0,1-7.23.72c-7.06,0-13.95-1.73-17.66-2.66l-.68-.17c-1.69-.42-6.09-2.28-10.73-4.23-8.28-3.51-17.62-7.48-21.47-7.73-4.52-.34-7.31.43-8.58,2.28-.93,1.45-.88,3.39.13,5.8,1.86,4.39,12.59,9.77,15.85,11.28,8.75,4.1,17.71,6.85,24,7.27,8.75.63,38.12,2.87,49,6,10.14,2.91,55.53,6.17,60.13,6.42a25.28,25.28,0,0,1,6.8,1.31c.08,0,.21,0,.3.08a19.75,19.75,0,0,0,3.47-.17,1,1,0,0,0-.17.6,1,1,0,0,0,.8,1,44.7,44.7,0,0,0,10.4,1.23c4.69,0,9.89-.67,17.45-2.28,6.63-1.39,13.69-4.14,21.13-7.06a214.32,214.32,0,0,1,20.7-7.18c15.17-4.14,28.31-9.39,28.44-9.42a1,1,0,0,0,.63-.76,13,13,0,0,0-.59-4.9c.68,1.52,1.27,3,1.73,4.31a1.06,1.06,0,0,0,.93.68,17.9,17.9,0,0,0,4.35,3.6c4.52,7.31,10.56,11.71,17.87,13a28.11,28.11,0,0,0,5,.42,37.54,37.54,0,0,0,9.8-1.39c12.8-3.51,25-12.68,31.78-18.47,1.14,2.75,2.87,3.3,4.14,3.3,4.23,0,9-6.68,9.47-7.48a.15.15,0,0,0,0-.08c2.2-3.85,2.71-6.63,1.56-8.54-.85-1.44-2.54-2.2-5-2.2a18.68,18.68,0,0,0-3.63.42A3.56,3.56,0,0,0,395,325c.68-.93,1.35-1.9,2-3,9-3.34,16.52-9.51,22.57-18.34a67.43,67.43,0,0,0,7.78-15.47,7,7,0,0,0,5.62,2.7c3.13,0,6.17-1.94,8.54-5.45,2-3,2.45-5.45,1.35-7.52-1.52-2.87-5.58-3.63-7.73-3.63h-.62a1.27,1.27,0,0,1-.93-.3,2,2,0,0,1-.29-1.36,30.6,30.6,0,0,0,4,1.52Zm-34.95,38.29a49.07,49.07,0,0,0,5.07-23.92v-1.61c0-4.61,1.1-7.18,1.77-8.32l1.39,1.52c1.94,2.16,4.65,5.11,7.48,6a14.85,14.85,0,0,0,3.21.59C419.26,293,413.73,305,402.61,312.45Zm-15,21.34.42-.25a.7.7,0,0,1,.43-.13,1.2,1.2,0,0,1,.72.3c0,.08,0,.21-.09.34-5.7,5.19-24.17,20.62-40.06,20.62a23.94,23.94,0,0,1-3.93-.34,18.56,18.56,0,0,1-9.08-4.48c.72,0,1.44,0,2.16,0C356.68,349.89,378.86,338.61,387.57,333.79Zm-20.62-90.26c5.66-7.18,8.71-7.78,9.51-7.78.17,0,.29,0,.34,0,2.2.59,4.73,6.21,6,13.31a41.41,41.41,0,0,0-9.76,1.27C372.44,249.36,370.92,247.41,366.95,243.53Zm-131,118.28a18.81,18.81,0,0,1-2.62,1.31A28.9,28.9,0,0,1,235.95,361.81Z" fill="#fff"/><path d="M204.05,196.3a2.54,2.54,0,0,1-1.19-.29l-17.29-9.09L168.27,196a2.55,2.55,0,0,1-3.71-2.69l3.3-19.26-14-13.64a2.55,2.55,0,0,1,1.42-4.36l19.34-2.81,8.65-17.52a2.66,2.66,0,0,1,4.58,0l8.65,17.52,19.34,2.81a2.55,2.55,0,0,1,1.42,4.36l-14,13.64,3.3,19.26a2.56,2.56,0,0,1-2.52,3Zm-42.9-35.93,11.25,11a2.56,2.56,0,0,1,.73,2.26l-2.66,15.48,13.9-7.31a2.54,2.54,0,0,1,2.38,0l13.9,7.31L198,173.59a2.56,2.56,0,0,1,.73-2.26l11.25-11-15.54-2.26a2.55,2.55,0,0,1-1.92-1.4l-7-14.08-7,14.08a2.55,2.55,0,0,1-1.92,1.4Z" fill="#fcfcfc"/><path d="M185.57,214.54a46.24,46.24,0,1,1,46.24-46.24A46.29,46.29,0,0,1,185.57,214.54Zm0-87.37A41.13,41.13,0,1,0,226.7,168.3h0a41.18,41.18,0,0,0-41.13-41.13Z" fill="#fcfcfc"/><path d="M198.3,233.3a9.24,9.24,0,0,1-4.53-1.19l-6.18-3.48a4.13,4.13,0,0,0-4,0l-6.19,3.48a9.21,9.21,0,0,1-12.09-2.75l-4.07-5.82a4.19,4.19,0,0,0-3.63-1.75l-7.09.44a9.19,9.19,0,0,1-9.68-7.73l-1.14-7a4.1,4.1,0,0,0-2.52-3.16l-6.57-2.66a9.2,9.2,0,0,1-5.38-11.17l2-6.81a4.15,4.15,0,0,0-.9-3.93l-4.77-5.27a9.21,9.21,0,0,1,0-12.38l4.77-5.28a4.16,4.16,0,0,0,.9-3.93l-2-6.81a9.21,9.21,0,0,1,5.38-11.17l6.57-2.67a4.15,4.15,0,0,0,2.52-3.15l1.15-7a9.18,9.18,0,0,1,9.68-7.73l7.09.44a4.11,4.11,0,0,0,3.63-1.75l4.07-5.81a9.2,9.2,0,0,1,12.09-2.75l6.18,3.47a4.16,4.16,0,0,0,4,0l6.18-3.48a9.21,9.21,0,0,1,12.09,2.75l4.07,5.82a4.13,4.13,0,0,0,3.63,1.75l7.09-.44a9.23,9.23,0,0,1,9.68,7.73l1.14,7a4.15,4.15,0,0,0,2.52,3.16l6.57,2.66A9.21,9.21,0,0,1,246,146.1l-2,6.8a4.15,4.15,0,0,0,.89,3.93l4.77,5.27a9.21,9.21,0,0,1,0,12.38l-4.77,5.28a4.15,4.15,0,0,0-.9,3.93l2,6.81a9.2,9.2,0,0,1-5.38,11.17L234,204.34a4.15,4.15,0,0,0-2.52,3.16l-1.14,7a9.22,9.22,0,0,1-9.68,7.73l-7.09-.44a4.12,4.12,0,0,0-3.63,1.75l-4.07,5.81A9.21,9.21,0,0,1,198.3,233.3ZM185.57,223a9.25,9.25,0,0,1,4.52,1.18l6.18,3.48a4.11,4.11,0,0,0,5.4-1.23l4.07-5.81a9.32,9.32,0,0,1,8.14-3.92l7.09.44a4.1,4.1,0,0,0,4.33-3.45l1.14-7a9.29,9.29,0,0,1,5.64-7.07l6.57-2.67a4.11,4.11,0,0,0,2.41-5l-2-6.81a9.29,9.29,0,0,1,2-8.8l4.77-5.27h0a4.11,4.11,0,0,0,0-5.53l-4.77-5.27a9.29,9.29,0,0,1-2-8.8l2-6.8a4.11,4.11,0,0,0-2.41-5L232.08,137a9.29,9.29,0,0,1-5.64-7.07l-1.15-7a4.14,4.14,0,0,0-4.32-3.45l-7.09.44a9.25,9.25,0,0,1-8.13-3.92l-4.07-5.82a4.12,4.12,0,0,0-5.4-1.23l-6.19,3.48a9.29,9.29,0,0,1-9,0l-6.18-3.48a4.11,4.11,0,0,0-5.4,1.23L165.39,116a9.23,9.23,0,0,1-8.13,3.92l-7.09-.44a4.15,4.15,0,0,0-4.32,3.45l-1.15,7a9.29,9.29,0,0,1-5.64,7.07l-6.57,2.67a4.11,4.11,0,0,0-2.4,5l2,6.8a9.3,9.3,0,0,1-2,8.8l-4.77,5.28a4.11,4.11,0,0,0,0,5.53l4.77,5.27a9.29,9.29,0,0,1,2,8.8l-2,6.81a4.11,4.11,0,0,0,2.4,5l6.57,2.66a9.3,9.3,0,0,1,5.64,7.07l1.14,7a4.13,4.13,0,0,0,4.32,3.45l7.09-.44a9.2,9.2,0,0,1,8.13,3.92l4.07,5.82a4.11,4.11,0,0,0,5.4,1.23l6.19-3.48A9.24,9.24,0,0,1,185.57,223Z" fill="#fcfcfc"/></svg>