<svg xmlns="http://www.w3.org/2000/svg" width="506.56" height="506.56" viewBox="0 0 506.56 506.56"><title>tour01</title><rect width="506.56" height="506.56" rx="200" ry="200"/><path d="M321.8,338.86c-2.39-.22-4.77-.37-7.24-.37a74.32,74.32,0,0,0-31.55,7,108.76,108.76,0,0,0-45.35-31.85,95.2,95.2,0,0,0-9.25-2.91,108.14,108.14,0,0,0-64.22,2.46A108.32,108.32,0,0,0,92.07,413H389A74.46,74.46,0,0,0,321.8,338.86Zm-147,4.4a76.73,76.73,0,0,0-45.87,44.83,5.21,5.21,0,0,1-4.85,3.36,4.17,4.17,0,0,1-1.86-.37,5.18,5.18,0,0,1-3-6.71,86.91,86.91,0,0,1,52.14-50.94,5.21,5.21,0,1,1,3.43,9.85Z" fill="#fff"/><path d="M300.92,243a49.38,49.38,0,0,1,24.17,6.56c2.91-15.44,6.56-29.69,9.92-41.47l-22.67-9.17-.15-.6c-37.67,30.73-59.07,71.23-71.23,105.39a.57.57,0,0,1,.3.15A118.86,118.86,0,0,1,285.78,333a83.1,83.1,0,0,1,28.72-5c1.86,0,3.8.07,5.67.22A204.51,204.51,0,0,1,319,304.7a5.57,5.57,0,0,1-1.49.22,6,6,0,0,1-2.46-.6c-.22-.15-16-8.43-31-8.43a5.22,5.22,0,1,1,0-10.44c16,0,31.77,7.61,35.21,9.32a323.87,323.87,0,0,1,3.73-34.53,6.06,6.06,0,0,1-2.16-.9,38,38,0,0,0-20.14-5.89,5.19,5.19,0,0,1-5.22-5.22A5.47,5.47,0,0,1,300.92,243Z" fill="#fff"/><path d="M368.42,138.22s-17-42.66-70.71-34c0,0,22.75,13.05,20.44,31.7,0,0-36.18-19.92-73.62,22.53,0,0,68.84-3.65,76.83,32.89L338,198s46,5.82,47.59,43.86c0,0,20.81-23.2,11.78-51.84,0,0,18.5-1.19,23.94,14.92C421.38,205,437.34,135.91,368.42,138.22Z" fill="#fff"/><path d="M188.29,241.3A158.84,158.84,0,0,0,171.43,225l-.15.52-19.69,8c5.15,18.27,10.89,43.48,12.23,68.7a119.15,119.15,0,0,1,60-3.28c-1.49-3.73-3.21-7.46-5-11.26a5.42,5.42,0,0,1-2.69.52c-.22,0-20-1.34-29.16-.07-.22,0-.45.07-.75.07a5.21,5.21,0,0,1-.67-10.37c7.91-1.12,21.85-.52,28-.22A190.28,190.28,0,0,0,195.3,249.8a4.61,4.61,0,0,1-2.09,1c-5.89,1.42-12.16,3.51-13.5,4.55a5.33,5.33,0,0,1-3.65,1.49,5,5,0,0,1-3.65-1.57,5.27,5.27,0,0,1,0-7.38C175.39,245.1,182.84,242.72,188.29,241.3Z" fill="#fff"/><path d="M100.05,217c-7.38,23.5,9.7,42.52,9.7,42.52,1.27-31.25,39-36,39-36L162.41,218c6.49-30,63-27,63-27-30.73-34.76-60.34-18.5-60.34-18.5-1.94-15.22,16.78-26,16.78-26-44-7.09-58,27.9-58,27.9-56.46-1.94-43.34,54.75-43.34,54.75C84.91,216,100.05,217,100.05,217Z" fill="#fff"/></svg>