<svg xmlns="http://www.w3.org/2000/svg" width="506.56" height="506.56" viewBox="0 0 506.56 506.56"><title>tour02</title><rect width="506.56" height="506.56" rx="200" ry="200"/><path d="M78.81,330.87a9.81,9.81,0,0,0,0,19.63H427.19a9.81,9.81,0,0,0,0-19.63H404L343.19,233c-8.08-13-19.75-20.42-32-20.42H311a32.92,32.92,0,0,0-19,6.4l-26-44.29c-7.77-13.24-19.3-21-31.62-21.18h-.65c-12.06,0-23.59,7.32-31.69,20L102,330.87Zm140.64,0H125.21l51.39-80.81a37.36,37.36,0,0,1,21.19,6.25,60.39,60.39,0,0,0,62.85,0c2.16-1.23,4.17-2.36,6.33-3.32l-47.53,77.88Zm29.61-146.25,27.07,46.11A56.84,56.84,0,0,0,251,239.26a40.85,40.85,0,0,1-43.48,0,59.7,59.7,0,0,0-19.11-7.69l30.2-47.49c4.5-7.06,10.1-11,15.44-11s10.8,4.29,15,11.51Zm77.47,58.73,20.88,33.58A59.56,59.56,0,0,0,331.87,284a34.11,34.11,0,0,1-20.44,6.17h0A34.06,34.06,0,0,1,291,284a59.24,59.24,0,0,0-15.64-7.07l20.4-33.42c4.43-7.27,9.88-11.28,15.35-11.3h0c5.45,0,10.91,4,15.39,11.16Zm54.41,87.5H242.42l22-36a34.47,34.47,0,0,1,16.59,6,53.24,53.24,0,0,0,30.44,8.91h0a53.2,53.2,0,0,0,30.44-8.93,34.51,34.51,0,0,1,16.68-6Z" fill="#fff"/></svg>