<svg xmlns="http://www.w3.org/2000/svg" width="1664" height="1600" viewBox="0 0 1664 1600"><title>upload</title><path d="M1344,1472q0-26-19-45t-45-19q-26,0-45,19t-19,45q0,26,19,45t45,19q26,0,45-19T1344,1472Zm256,0q0-26-19-45t-45-19q-26,0-45,19t-19,45q0,26,19,45t45,19q26,0,45-19T1600,1472Zm128-224v320q0,40-28,68t-68,28H160q-40,0-68-28t-28-68V1248q0-40,28-68t68-28H587q21,56,70.5,92T768,1280h256q61,0,110.5-36t70.5-92h427q40,0,68,28T1728,1248ZM1403,600q-17,40-59,40H1088v448q0,26-19,45t-45,19H768q-26,0-45-19t-19-45V640H448q-42,0-59-40-17-39,14-69L851,83q18-19,45-19t45,19l448,448Q1420,561,1403,600Z" transform="translate(-64 -64)"/></svg>