<svg xmlns="http://www.w3.org/2000/svg" width="177.07" height="150.39" viewBox="0 0 177.07 150.39"><defs><style>.a{fill:#afafaf;}.b{fill:none;stroke:#afafaf;stroke-miterlimit:10;stroke-width:9px;}</style></defs><title>no_img</title><path class="a" d="M222.29,244.47a18.61,18.61,0,0,1-18.66-18.66,18.66,18.66,0,1,1,18.66,18.66Zm0-28.84a9.84,9.84,0,1,0,9.84,9.84,9.85,9.85,0,0,0-9.84-9.84Z" transform="translate(-117.1 -187.8)"/><path class="a" d="M228,307.5a35.77,35.77,0,0,1,.4-5.35H131a4.64,4.64,0,0,1-4.75-4.75V201.71A4.64,4.64,0,0,1,131,197H265a4.64,4.64,0,0,1,4.75,4.75v70.87a35.23,35.23,0,0,1,9.84,3.32V202.05a14.34,14.34,0,0,0-14.25-14.25h-134a14.34,14.34,0,0,0-14.25,14.25v95.69A14.34,14.34,0,0,0,131.35,312h96.93A35.78,35.78,0,0,1,228,307.5Z" transform="translate(-117.1 -187.8)"/><path class="a" d="M263.49,276.82a30.68,30.68,0,1,0,30.68,30.68A30.68,30.68,0,0,0,263.49,276.82Zm0,54.15A23.46,23.46,0,1,1,287,307.5,23.46,23.46,0,0,1,263.49,331Z" transform="translate(-117.1 -187.8)"/><line class="b" x1="126.24" y1="103.24" x2="166.54" y2="137.8"/><path class="a" d="M235.06,286.19l-65.7-61.74-50.9,47.17,6.11,6.45,44.79-41.4,61.21,57.5A35.44,35.44,0,0,1,235.06,286.19Z" transform="translate(-117.1 -187.8)"/><path class="a" d="M256.13,272.95a35.23,35.23,0,0,1,13.15-.67l-23.23-19-27.49,22.4,5.77,7.13,21.72-18Z" transform="translate(-117.1 -187.8)"/></svg>